<?xml version="1.0" encoding="utf-8"?>
<!-- Generator: Adobe Illustrator 25.0.0, SVG Export Plug-In . SVG Version: 6.00 Build 0)  -->
<svg version="1.1" id="Layer_1" xmlns="http://www.w3.org/2000/svg" xmlns:xlink="http://www.w3.org/1999/xlink" x="0px" y="0px"
	 viewBox="0 0 145.4 145.4" style="enable-background:new 0 0 145.4 145.4;" xml:space="preserve">
<style type="text/css">
	.st0{fill:#393939;}
	.st1{fill:#F5F3F3;}
</style>
<circle class="st0" cx="72.7" cy="72.7" r="72.7"/>
<path class="st1" d="M69,28.9c0,0-0.2,1.2-0.4,2.6c-0.2,1.4-0.7,3.7-0.9,5.2s-0.5,2.6-0.5,2.6s-0.4,0.1-0.9,0.2
	c-1.6,0.3-3.2,0.8-4.7,1.3c-0.8,0.3-0.8,0.3-0.9,0.2s-1.5-1.8-3.3-3.9s-3.2-3.9-3.3-3.9s-0.3,0-3.3,1.7c-1.7,1-3.2,1.8-3.2,1.9
	s0.8,2.3,1.8,5l1.8,4.9l-0.3,0.2c-1.5,1.3-2.9,2.7-4.2,4.2l-0.2,0.3l-4.8-1.8c-2.7-1-4.9-1.8-5-1.8s-0.4,0.4-2,3.1
	c-1.7,3-1.8,3.2-1.7,3.3s1.8,1.6,4,3.3l3.9,3.3c0.1,0.1,0,0.2-0.2,0.9c-0.5,1.5-1,3.1-1.3,4.7c-0.1,0.5-0.2,0.9-0.2,0.9l-2.6,0.5
	l-5.2,0.9L28.9,69c0,0-0.1,1.7-0.1,3.7s0,3.7,0.1,3.7l2.6,0.4l5.2,0.9l2.6,0.5c0,0,0.1,0.4,0.2,0.9c0.3,1.6,0.7,3.2,1.3,4.7
	c0.2,0.6,0.2,0.8,0.2,0.9L37,88c-2.1,1.8-3.9,3.3-4,3.3s0,0.3,1.7,3.3c1.6,2.7,1.8,3.2,2,3.1s2.3-0.8,5-1.8l4.8-1.8l0.2,0.3
	c1.3,1.5,2.7,2.9,4.2,4.2l0.3,0.2l-1.8,4.9c-1,2.7-1.8,5-1.8,5s1.4,0.9,3.2,1.9c3,1.7,3.2,1.8,3.3,1.7s1.5-1.8,3.3-3.9
	s3.2-3.9,3.3-3.9s0.1-0.1,0.9,0.1c1.5,0.5,3.1,1,4.7,1.3l0.9,0.2c0,0,0.2,1.2,0.5,2.6s0.7,3.8,0.9,5.1s0.4,2.6,0.4,2.6
	s1.7,0.1,3.7,0.1h3.7l0.3-2c0.2-1.1,0.6-3.4,0.9-5.2s0.6-3.2,0.6-3.2l1-0.2c1.6-0.3,3.1-0.7,4.7-1.3c0.6-0.2,0.8-0.2,0.9-0.2
	s1.5,1.8,3.3,3.9s3.3,3.9,3.3,4s0.3,0,3.3-1.7c1.7-1,3.2-1.8,3.2-1.9s-1.1-3.2-3.2-8.9L94.3,99l0.4-0.4c1.4-1.2,2.7-2.5,3.9-3.9
	l0.4-0.4l1.3,0.5c4.9,1.8,8.6,3.1,8.6,3.1s0.7-1,1.4-2.2s1.5-2.7,1.8-3.2c0.4-0.7,0.5-0.9,0.4-1l-4-3.3l-4-3.3
	c-0.1-0.1,0-0.2,0.2-0.9c0.6-1.6,1-3.2,1.3-4.9c0-0.3,0.1-0.5,0.2-0.8c0,0,1.6-0.3,3.4-0.6l5.1-0.9l1.8-0.3c0,0,0.1-1.7,0.1-3.7
	s0-3.7-0.1-3.7l-2.6-0.4l-5.2-0.9l-2.7-0.5l-0.2-0.8c-0.3-1.7-0.7-3.3-1.3-4.9c-0.2-0.6-0.2-0.8-0.2-0.9l4-3.3
	c2.1-1.8,3.9-3.3,4-3.3s0-0.3-0.4-1c-0.3-0.5-1.1-1.9-1.8-3.2s-1.3-2.2-1.4-2.2s-3.8,1.3-8.6,3.1L99,51.2l-0.4-0.4
	c-1.2-1.4-2.5-2.7-3.9-3.9l-0.4-0.4l0.4-1c2.1-5.7,3.2-8.8,3.2-8.9s-1.4-0.9-3.2-1.9c-3-1.7-3.2-1.8-3.3-1.7s-1.6,1.9-3.3,4L84.8,41
	c-0.1,0.1-0.2,0-0.9-0.2c-1.5-0.5-3.1-0.9-4.6-1.2l-1-0.2c0,0-0.3-1.6-0.6-3.3s-0.7-4.1-0.9-5.2l-0.3-2h-3.7
	C70.7,28.8,69,28.8,69,28.9z M74.2,46.9C87,47.6,97.5,57.6,98.6,70.5c0.1,1.5,0.1,3,0,4.5c-1,11.8-9.9,21.3-21.5,23.3
	c-1.4,0.3-2.9,0.4-4.4,0.3c-1.5,0.1-2.9,0-4.4-0.3c-8.1-1.4-15.1-6.6-18.8-13.9c-2-4-3-8.4-2.7-12.9c0.6-12.7,10.3-23.1,22.9-24.6
	c0.7-0.1,2.8-0.2,3.1-0.2C73,46.7,73.6,46.8,74.2,46.9L74.2,46.9z"/>
</svg>
