<svg xmlns="http://www.w3.org/2000/svg" viewBox="0 0 224.67 32.22"><defs><style>.a{fill:#2d1a47;fill-rule:evenodd;}</style></defs><path d="M15.78,62.28v1.77H28.33V62.28Zm14.32,0v1.77H48a6.81,6.81,0,0,0-4.25-1.77Zm21.39,0v1.77H62.3l-.64-1.77Zm18.56,0-.64,1.77H80.13V62.28ZM15.78,65.71v1.77H28.33V65.71Zm14.32,0v1.77H50.05a4.64,4.64,0,0,0-.64-1.77Zm21.39,0v1.77h12l-.6-1.77Zm17.28,0-.59,1.77H80.13V65.71ZM19.39,69.14v1.77h5.43V69.14Zm14.32,0v1.77h5.43V69.14Zm10.71,0v1.77h5.44a6.07,6.07,0,0,0,.34-1.77Zm10.67,0v1.77h9.63l-.64-1.77Zm12.5,0-.65,1.77h9.68V69.14Zm-48.2,3.43v1.77h5.43V72.57Zm14.32,0v1.77H47.58a6,6,0,0,0,1.53-1.77Zm21.38,0v1.77h5.43v-1l.35,1h9.95l.37-1v1h5.43V72.57H66.42l-.54,1.5-.54-1.5ZM19.39,76v1.77h5.43V76Zm14.32,0v1.77h15.4A6,6,0,0,0,47.58,76Zm21.38,0v1.77h5.43V76Zm6.42,0,.66,1.77h7.46L70.25,76Zm9.68,0v1.77h5.43V76Zm-51.8,3.43V81.2h5.43V79.43Zm14.32,0V81.2h5.43V79.43Zm10.71,0V81.2H50.2a6.16,6.16,0,0,0-.34-1.77Zm10.67,0V81.2h5.43V79.43Zm7.65,0,.64,1.77h5L69,79.43Zm8.45,0V81.2h5.43V79.43ZM15.88,82.86v1.77H28.42V82.86Zm14.22,0v1.77H49.41a4.58,4.58,0,0,0,.64-1.77Zm21.48,0v1.77h8.94V82.86Zm12.4,0,.65,1.77h2.55l.61-1.77Zm7.21,0v1.77h9V82.86ZM15.88,86.3v1.76H28.42V86.3Zm14.22,0v1.76H43.73A6.83,6.83,0,0,0,48,86.3Zm21.48,0v1.76h8.94V86.3Zm13.64,0,.63,1.76H66l.64-1.76Zm6,0v1.76h9V86.3Z" transform="translate(-15.78 -58.7)"/><path class="a" d="M224.5,58.71c13.42,0,13.75,0,14.33.29a3.18,3.18,0,0,1,.9.63,3.44,3.44,0,0,1,.52,1.07c.17.6.2,2.55.2,14.13,0,10.68,0,13.56-.18,14a4,4,0,0,1-.44,1,4.69,4.69,0,0,1-1.6,1.07H224.37c-7.63,0-14.09-.05-14.37-.1a2.74,2.74,0,0,1-1-.53,3.53,3.53,0,0,1-.74-1C208,88.82,208,88,208,74.83s0-14,.24-14.5a3.53,3.53,0,0,1,.74-1,2.17,2.17,0,0,1,1-.5,5.68,5.68,0,0,0,.63-.13C210.71,58.71,217,58.69,224.5,58.71ZM210.84,73.3h8V67.44h3.21V82.21h-3.21V76.36h-8V88.2h26.79l-.07-11.78h-8l-.07,5.79h-3.21V67.44h3.21V73.3l8.1-.06.06-11.78H210.84Zm-34.7-8.1a12.42,12.42,0,0,1,1.64.12,19.14,19.14,0,0,1,3.05.87v1.69a6.88,6.88,0,0,1-.1,1.65l-1-.45a10,10,0,0,0-1.68-.63,8.06,8.06,0,0,0-1.74-.2,6.8,6.8,0,0,0-1.44.13,2.72,2.72,0,0,0-1,.56,2.15,2.15,0,0,0-.62,1,2.64,2.64,0,0,0-.05,1,2.1,2.1,0,0,0,.44.85,4.52,4.52,0,0,0,1.14.8,23.45,23.45,0,0,0,2.28.89c.83.29,1.88.71,2.34.93a7.79,7.79,0,0,1,1.46,1,5.79,5.79,0,0,1,.92,1.09,5.58,5.58,0,0,1,.47,1.27,5.94,5.94,0,0,1,.1,1.6A7.84,7.84,0,0,1,182,81a4.23,4.23,0,0,1-1.18,1.67,4.76,4.76,0,0,1-1.79,1.23,10.12,10.12,0,0,1-2.07.5,10,10,0,0,1-2.32,0,17.76,17.76,0,0,1-2-.39,18.54,18.54,0,0,1-2.15-.81V81.41a10.62,10.62,0,0,1,.07-1.73,6.68,6.68,0,0,1,.7.38,12.47,12.47,0,0,0,1.58.74,10.67,10.67,0,0,0,1.67.51,9,9,0,0,0,1.68.08,3.85,3.85,0,0,0,1.6-.39,1.85,1.85,0,0,0,1-.92,2,2,0,0,0,.26-1.13,2.38,2.38,0,0,0-.27-.89,3.07,3.07,0,0,0-.73-.7,22.07,22.07,0,0,0-2.72-1.14c-1.21-.44-2.51-1-2.87-1.17a6.63,6.63,0,0,1-1.24-.92,5.52,5.52,0,0,1-.83-1.06A6.75,6.75,0,0,1,170,71.7a4.49,4.49,0,0,1,0-1.79,7.82,7.82,0,0,1,.49-1.63,6,6,0,0,1,.94-1.3,6.62,6.62,0,0,1,1.44-1,7.88,7.88,0,0,1,1.71-.59A10.71,10.71,0,0,1,176.14,65.2Zm-75,.38h15v3.06h-5.75L110.29,84l-3.28.07V68.64h-5.9Zm19.45,0,4.44.05c4.21,0,4.49.06,5.25.34a10.11,10.11,0,0,1,1.34.61,6.19,6.19,0,0,1,1.17,1,6.52,6.52,0,0,1,1,1.37,7.5,7.5,0,0,1,.48,1.5,6.81,6.81,0,0,1,.07,1.63,6.7,6.7,0,0,1-.35,1.53,7.34,7.34,0,0,1-.63,1.22,6,6,0,0,1-1.17,1.1,6.76,6.76,0,0,1-2.08,1l.35.44a14.71,14.71,0,0,1,1,1.69,7.57,7.57,0,0,0,1.09,1.57,3.53,3.53,0,0,0,.86.45,3,3,0,0,0,1.34,0v3.06l-.64.07a6.48,6.48,0,0,1-1.44-.05,7.38,7.38,0,0,1-1.47-.41,4.65,4.65,0,0,1-1.32-1,11.22,11.22,0,0,1-1.49-2.35,11.8,11.8,0,0,0-1.3-2.09,3.24,3.24,0,0,0-.82-.56,9.38,9.38,0,0,0-2.37-.15v6.53L120.61,84Zm3.33,9.06a34.57,34.57,0,0,0,4.62-.17,3.89,3.89,0,0,0,1.28-.51,3.22,3.22,0,0,0,.79-1,3.06,3.06,0,0,0,.33-1.39,2.83,2.83,0,0,0-.34-1.39,2.43,2.43,0,0,0-1-1.07l-.65-.4-5-.08Zm15.67-9h3.35v6.09c0,5.68,0,6.14.26,7a4.18,4.18,0,0,0,.77,1.45,4.71,4.71,0,0,0,1.18.92,3.29,3.29,0,0,0,1.88.35,3.75,3.75,0,0,0,1.87-.3,4.85,4.85,0,0,0,1.11-.73,7.55,7.55,0,0,0,1.17-2l.07-12.71,3.28.07,0,5.46c0,3.12,0,6-.1,6.65a11.36,11.36,0,0,1-.41,2,8.51,8.51,0,0,1-.86,1.66,7.16,7.16,0,0,1-1.3,1.42,10.08,10.08,0,0,1-1.29.83,11.06,11.06,0,0,1-1.4.51,10,10,0,0,1-2.18.22,7.64,7.64,0,0,1-2.14-.24,9.52,9.52,0,0,1-1.61-.65,7.77,7.77,0,0,1-1.55-1.15,7,7,0,0,1-1.25-1.74,8.47,8.47,0,0,1-.69-2.06,57,57,0,0,1-.19-7Zm21.3,0h3.35v18.5L160.93,84Zm24.12,0h15v3.06h-5.89V84.08h-3.21V68.64H185Z" transform="translate(-15.78 -58.7)"/></svg>