<svg xmlns="http://www.w3.org/2000/svg" viewBox="0 0 235.49 32.22"><defs><style>.a,.b{fill:#2d1a47;}.a{fill-rule:evenodd;}</style></defs><path d="M7.25,65.54V67.3H19.8V65.54Zm14.32,0V67.3H39.45a6.79,6.79,0,0,0-4.24-1.76Zm21.39,0V67.3H53.77l-.64-1.76Zm18.57,0-.65,1.76H71.6V65.54ZM7.25,69v1.76H19.8V69Zm14.32,0v1.76h20A4.79,4.79,0,0,0,40.89,69ZM43,69v1.76H55L54.36,69Zm17.28,0-.59,1.76H71.6V69ZM10.86,72.4v1.77h5.43V72.4Zm14.32,0v1.77h5.43V72.4Zm10.72,0v1.77h5.43a6.16,6.16,0,0,0,.34-1.77Zm10.66,0v1.77h9.63l-.64-1.77Zm12.5,0-.64,1.77h9.67V72.4Zm-48.2,3.43V77.6h5.43V75.83Zm14.32,0V77.6H39.06a6,6,0,0,0,1.53-1.77Zm21.38,0V77.6H52v-1l.34,1h9.95l.37-1v1h5.43V75.83H57.9l-.54,1.5-.55-1.5Zm-35.7,3.43V81h5.43V79.26Zm14.32,0V81H40.59a6,6,0,0,0-1.53-1.77Zm21.38,0V81H52V79.26Zm6.42,0L53.64,81H61.1l.63-1.77Zm9.68,0V81h5.43V79.26Zm-51.8,3.43v1.77h5.43V82.69Zm14.32,0v1.77h5.43V82.69Zm10.72,0v1.77h5.77a6.07,6.07,0,0,0-.34-1.77Zm10.66,0v1.77H52V82.69Zm7.66,0,.63,1.77h5l.64-1.77Zm8.44,0v1.77h5.43V82.69ZM7.35,86.12v1.77H19.9V86.12Zm14.22,0v1.77H40.89a4.82,4.82,0,0,0,.64-1.77Zm21.49,0v1.77H52V86.12Zm12.39,0,.66,1.77h2.54l.62-1.77Zm7.21,0v1.77h9V86.12ZM7.35,89.56v1.76H19.9V89.56Zm14.22,0v1.76H35.21a6.79,6.79,0,0,0,4.24-1.76Zm21.49,0v1.76H52V89.56Zm13.63,0,.63,1.75h.11l.64-1.76Zm6,0v1.76h9V89.56Z" transform="translate(-7.25 -61.49)"/><path class="a" d="M226.8,61.49c13.42,0,13.75,0,14.33.29a3.18,3.18,0,0,1,.9.63,3.44,3.44,0,0,1,.51,1.07c.17.6.2,2.55.21,14.13,0,10.68,0,13.56-.18,14a2.77,2.77,0,0,1-2,2.06H226.66c-7.62,0-14.09,0-14.37-.1a2.82,2.82,0,0,1-1-.53,3.49,3.49,0,0,1-.73-1c-.23-.5-.24-1.29-.24-14.5s0-14,.24-14.5a3.45,3.45,0,0,1,.73-1,2.14,2.14,0,0,1,1-.51l.64-.12C213,61.49,219.24,61.48,226.8,61.49ZM213.14,76.08h8V70.23h3.22V85h-3.22V79.14h-8V91h26.79l-.07-11.77h-8L231.76,85h-3.22V70.23h3.22v5.85l8.1-.06,0-11.78H213.14ZM178.43,68a14.08,14.08,0,0,1,1.64.12,20.36,20.36,0,0,1,3.06.87v1.69a6.73,6.73,0,0,1-.11,1.66l-1-.46a10.92,10.92,0,0,0-1.68-.63,8,8,0,0,0-1.73-.2,7.66,7.66,0,0,0-1.45.13,3,3,0,0,0-1,.57,2,2,0,0,0-.61,1,2.92,2.92,0,0,0-.06,1,2,2,0,0,0,.45.85,4.12,4.12,0,0,0,1.14.8c.42.21,1.44.61,2.27.9a22.55,22.55,0,0,1,2.35.93,7.75,7.75,0,0,1,1.46,1,5.83,5.83,0,0,1,.92,1.1,6.37,6.37,0,0,1,.47,1.26,6,6,0,0,1,.09,1.6,7.27,7.27,0,0,1-.38,1.66,4.13,4.13,0,0,1-1.18,1.67,4.8,4.8,0,0,1-1.79,1.24,10.49,10.49,0,0,1-2.07.49,8.93,8.93,0,0,1-2.31,0,16,16,0,0,1-2-.39,17.89,17.89,0,0,1-2.14-.81V84.19a11.32,11.32,0,0,1,.06-1.72,5.07,5.07,0,0,1,.7.38,14.91,14.91,0,0,0,1.58.74,10.87,10.87,0,0,0,1.67.5,8.2,8.2,0,0,0,1.68.08,3.9,3.9,0,0,0,1.61-.38,1.94,1.94,0,0,0,1-.93,2,2,0,0,0,.26-1.12,2.38,2.38,0,0,0-.28-.9,2.89,2.89,0,0,0-.73-.7A22.18,22.18,0,0,0,177.63,79a29.17,29.17,0,0,1-2.87-1.18,7,7,0,0,1-1.24-.91,5.55,5.55,0,0,1-.84-1.07,6.29,6.29,0,0,1-.42-1.36,4.36,4.36,0,0,1,0-1.8,6.78,6.78,0,0,1,.49-1.63,5.71,5.71,0,0,1,.94-1.3,7,7,0,0,1,1.44-1,7.8,7.8,0,0,1,1.7-.59A12.38,12.38,0,0,1,178.43,68Zm-75,.39h15v3.06h-5.76l-.07,15.36-3.28.07V71.43h-5.9Zm19.45,0,4.44.05c4.22,0,4.49.06,5.25.34a11.8,11.8,0,0,1,1.35.61,6.52,6.52,0,0,1,1.17,1,6.68,6.68,0,0,1,1,1.38,9,9,0,0,1,.48,1.49,7.4,7.4,0,0,1,.07,1.63,7.14,7.14,0,0,1-.35,1.53,7,7,0,0,1-.64,1.22,5.72,5.72,0,0,1-1.17,1.1,6.64,6.64,0,0,1-2.08,1l.35.44a15.37,15.37,0,0,1,1.06,1.69,7.57,7.57,0,0,0,1.09,1.57,3.16,3.16,0,0,0,.85.45,2.86,2.86,0,0,0,1.35,0v3.06l-.65.07a5.87,5.87,0,0,1-1.43-.05,7.47,7.47,0,0,1-1.48-.41,4.89,4.89,0,0,1-1.32-1,12.44,12.44,0,0,1-1.49-2.35,10.88,10.88,0,0,0-1.3-2.09,3,3,0,0,0-.81-.57,9.76,9.76,0,0,0-2.38-.14v6.52l-3.28-.07Zm3.33,9.06a32.89,32.89,0,0,0,4.63-.17,3.89,3.89,0,0,0,1.28-.5,3.38,3.38,0,0,0,.78-1,3.06,3.06,0,0,0,.33-1.39,2.82,2.82,0,0,0-.33-1.39,2.49,2.49,0,0,0-1-1.07l-.65-.4-5-.08Zm15.68-9h3.35v6.08c0,5.69,0,6.14.26,7a4,4,0,0,0,.78,1.45,4.8,4.8,0,0,0,1.18.93,3.36,3.36,0,0,0,1.87.35,3.91,3.91,0,0,0,1.88-.3,5.15,5.15,0,0,0,1.1-.74,7.37,7.37,0,0,0,1.17-2l.07-12.7,3.28.06,0,5.46c0,3.13,0,6-.09,6.65a11.11,11.11,0,0,1-.42,2,8.43,8.43,0,0,1-.85,1.66,7.2,7.2,0,0,1-1.31,1.42,9,9,0,0,1-1.29.84,10.6,10.6,0,0,1-1.4.5,9.83,9.83,0,0,1-2.18.22,8.2,8.2,0,0,1-2.14-.23,11.39,11.39,0,0,1-1.61-.66A7.71,7.71,0,0,1,144,85.13a6.91,6.91,0,0,1-1.25-1.73,7.88,7.88,0,0,1-.69-2.07,55.82,55.82,0,0,1-.2-7Zm21.3,0h3.35V86.86l-3.29-.07Zm24.11,0h15v3.06h-5.89V86.86h-3.22V71.43h-5.9Z" transform="translate(-7.25 -61.49)"/><rect class="b" x="80.3" y="12.11" width="2.42" height="10.29"/><rect class="b" x="87.55" y="73.4" width="2.42" height="10.29" transform="translate(160.06 -71.7) rotate(90)"/></svg>