<?xml version="1.0" encoding="utf-8"?>
<!-- Generator: Adobe Illustrator 25.0.0, SVG Export Plug-In . SVG Version: 6.00 Build 0)  -->
<svg version="1.1" id="Layer_1" xmlns="http://www.w3.org/2000/svg" xmlns:xlink="http://www.w3.org/1999/xlink" x="0px" y="0px"
	 viewBox="0 0 16 16" style="enable-background:new 0 0 16 16;" xml:space="preserve">
<style type="text/css">
	.st0{fill:#005EF9;}
</style>
<path class="st0" d="M16,8c0,4.4-3.6,8-8,8s-8-3.6-8-8s3.6-8,8-8S16,3.6,16,8z M8.5,4.5C8.5,4.2,8.3,4,8,4S7.5,4.2,7.5,4.5v3h-3
	C4.2,7.5,4,7.7,4,8s0.2,0.5,0.5,0.5h3v3C7.5,11.8,7.7,12,8,12s0.5-0.2,0.5-0.5v-3h3C11.8,8.5,12,8.3,12,8s-0.2-0.5-0.5-0.5h-3V4.5z"
	/>
<rect x="5.9" y="3.5" class="st0" width="4.6" height="4"/>
<rect x="5.7" y="8.5" class="st0" width="4.6" height="4"/>
</svg>
