<?xml version="1.0" encoding="utf-8"?>
<!-- Generator: Adobe Illustrator 25.0.0, SVG Export Plug-In . SVG Version: 6.00 Build 0)  -->
<svg version="1.1" xmlns="http://www.w3.org/2000/svg" xmlns:xlink="http://www.w3.org/1999/xlink" x="0px" y="0px"
	 viewBox="0 0 70 50" style="enable-background:new 0 0 70 50;" xml:space="preserve">
<style type="text/css">
	.st0{display:none;}
	.st1{display:inline;}
	.st2{fill:#005EB8;}
	.st3{fill:#FFFFFF;}
	.st4{display:inline;fill:#005EB8;stroke:#005EB8;stroke-miterlimit:10;}
	.st5{fill:#FFFFFF;stroke:#FFFFFF;stroke-miterlimit:10;}
</style>
<g id="Layer_1" class="st0">
	<g id="Type_x3D_Linear" class="st1">
		<path id="Vector_23" class="st2" d="M56.5,11.9h-4.5c-1.5-3.2-3.9-6-7-7.9c-3-1.9-6.5-2.9-10.1-2.9H18.8c-5,0-9.8,2-13.3,5.5
			C2,10.1,0,14.9,0,19.9c0,5,2,9.8,5.5,13.3c3.5,3.5,8.3,5.5,13.3,5.5h3.4l7.8,7.8c0.2,0.2,0.4,0.3,0.7,0.4c0.3,0.1,0.5,0,0.8-0.1
			c0.2-0.1,0.5-0.3,0.6-0.5c0.1-0.2,0.2-0.5,0.2-0.7v-6.8H35c2.2,0,4.4-0.4,6.5-1.1c1.8,0.8,3.7,1.2,5.6,1.2v4.7
			c0,0.3,0.1,0.5,0.2,0.7c0.1,0.2,0.4,0.4,0.6,0.5c0.2,0.1,0.5,0.1,0.8,0.1c0.3-0.1,0.5-0.2,0.7-0.4l5.7-5.7h1.5
			c3.6,0,7-1.4,9.5-3.9c2.5-2.5,3.9-5.9,3.9-9.5s-1.4-7-3.9-9.5C63.5,13.4,60.1,11.9,56.5,11.9L56.5,11.9z M31,36.1
			c-0.4,0-0.7,0.1-1,0.4c-0.3,0.3-0.4,0.6-0.4,1v4.9l-5.9-5.9c-0.3-0.3-0.6-0.4-1-0.4h-3.9c-4.3,0-8.4-1.7-11.4-4.7
			c-3-3-4.7-7.1-4.7-11.4s1.7-8.4,4.7-11.4c3-3,7.1-4.7,11.4-4.7H35c2.1,0,4.2,0.4,6.2,1.2c2,0.8,3.7,2,5.2,3.5
			c1.5,1.5,2.7,3.3,3.5,5.2c0.8,2,1.2,4.1,1.2,6.2s-0.4,4.2-1.2,6.2c-0.8,2-2,3.7-3.5,5.2c-1.5,1.5-3.3,2.7-5.2,3.5
			c-2,0.8-4.1,1.2-6.2,1.2L31,36.1z M56.5,36.2h-2c-0.4,0-0.7,0.1-1,0.4l-3.8,3.8v-2.8c0-0.2,0-0.4-0.1-0.5
			c-0.1-0.2-0.2-0.3-0.3-0.4s-0.3-0.2-0.4-0.3c-0.2-0.1-0.3-0.1-0.5-0.1h-1.3c-0.7,0-1.5-0.1-2.2-0.2c3.5-2.2,6.2-5.4,7.7-9.3
			c1.5-3.8,1.6-8.1,0.5-12h3.5c2.9,0,5.6,1.1,7.6,3.2c2,2,3.2,4.8,3.2,7.6S66.2,31,64.2,33C62.1,35,59.4,36.2,56.5,36.2L56.5,36.2z"
			/>
		<path id="Vector_24" class="st2" d="M26.9,22.6c1.5,0,2.7-1.2,2.7-2.7c0-1.5-1.2-2.7-2.7-2.7c-1.5,0-2.7,1.2-2.7,2.7
			C24.2,21.4,25.4,22.6,26.9,22.6z"/>
		<path id="Vector_25" class="st2" d="M16.2,22.6c1.5,0,2.7-1.2,2.7-2.7c0-1.5-1.2-2.7-2.7-2.7s-2.7,1.2-2.7,2.7
			C13.5,21.4,14.7,22.6,16.2,22.6z"/>
		<path id="Vector_26" class="st2" d="M37.7,22.6c1.5,0,2.7-1.2,2.7-2.7c0-1.5-1.2-2.7-2.7-2.7c-1.5,0-2.7,1.2-2.7,2.7
			C35,21.4,36.2,22.6,37.7,22.6z"/>
	</g>
</g>
<g id="Layer_2" class="st0">
	<g id="Type_x3D_Linear_White" class="st1">
		<path id="Vector_27" class="st3" d="M56.8,12h-4.5c-1.5-3.3-4-6-7-8c-3-1.9-6.6-3-10.2-3H18.8c-5,0-9.9,2-13.4,5.6
			C1.9,10.2-0.1,15-0.1,20.1c0,5,2,9.9,5.6,13.4C9,37,13.8,39,18.8,39h3.4l7.8,7.8c0.2,0.2,0.4,0.3,0.7,0.4c0.3,0.1,0.5,0,0.8-0.1
			c0.2-0.1,0.5-0.3,0.6-0.5c0.1-0.2,0.2-0.5,0.2-0.8V39h2.7c2.2,0,4.4-0.4,6.5-1.2c1.8,0.8,3.7,1.2,5.7,1.2v4.7
			c0,0.3,0.1,0.5,0.2,0.8c0.1,0.2,0.4,0.4,0.6,0.5c0.2,0.1,0.5,0.1,0.8,0.1c0.3-0.1,0.5-0.2,0.7-0.4l5.7-5.7h1.5c3.6,0,7-1.4,9.6-4
			c2.5-2.5,4-6,4-9.6s-1.4-7-4-9.6C63.8,13.4,60.4,12,56.8,12L56.8,12z M31,36.3c-0.4,0-0.7,0.1-1,0.4c-0.3,0.3-0.4,0.6-0.4,1v4.9
			l-5.9-5.9c-0.3-0.3-0.6-0.4-1-0.4h-4c-4.3,0-8.4-1.7-11.5-4.8c-3-3-4.8-7.2-4.8-11.5s1.7-8.4,4.8-11.5c3.1-3,7.2-4.8,11.5-4.8
			h16.3c2.1,0,4.2,0.4,6.2,1.2c2,0.8,3.8,2,5.3,3.5c1.5,1.5,2.7,3.3,3.5,5.3c0.8,2,1.2,4.1,1.2,6.2s-0.4,4.3-1.2,6.2
			c-0.8,2-2,3.8-3.5,5.3c-1.5,1.5-3.3,2.7-5.3,3.5c-2,0.8-4.1,1.2-6.2,1.2L31,36.3z M56.8,36.4h-2c-0.4,0-0.7,0.1-1,0.4L50,40.6
			v-2.8c0-0.2,0-0.4-0.1-0.5c-0.1-0.2-0.2-0.3-0.3-0.4c-0.1-0.1-0.3-0.2-0.4-0.3c-0.2-0.1-0.3-0.1-0.5-0.1h-1.4
			c-0.7,0-1.5-0.1-2.2-0.2c3.5-2.2,6.2-5.5,7.7-9.3c1.5-3.9,1.7-8.1,0.5-12.1h3.5c2.9,0,5.6,1.1,7.7,3.2c2,2,3.2,4.8,3.2,7.7
			s-1.1,5.6-3.2,7.7C62.4,35.3,59.7,36.4,56.8,36.4L56.8,36.4z"/>
		<path id="Vector_28" class="st3" d="M27,22.8c1.5,0,2.7-1.2,2.7-2.7c0-1.5-1.2-2.7-2.7-2.7c-1.5,0-2.7,1.2-2.7,2.7
			C24.3,21.6,25.5,22.8,27,22.8z"/>
		<path id="Vector_29" class="st3" d="M16.1,22.8c1.5,0,2.7-1.2,2.7-2.7c0-1.5-1.2-2.7-2.7-2.7c-1.5,0-2.7,1.2-2.7,2.7
			C13.4,21.6,14.6,22.8,16.1,22.8z"/>
		<path id="Vector_30" class="st3" d="M37.8,22.8c1.5,0,2.7-1.2,2.7-2.7c0-1.5-1.2-2.7-2.7-2.7c-1.5,0-2.7,1.2-2.7,2.7
			C35.1,21.6,36.3,22.8,37.8,22.8z"/>
	</g>
</g>
<g id="Layer_3" class="st0">
	<g class="st1">
		<path class="st2" d="M48.1,15.5c0-0.6,0.5-1.2,1.2-1.2c0.6,0,1.2,0.5,1.2,1.2v6.5c0,4.2-1.7,8-4.5,10.8c-2.5,2.5-5.9,4.1-9.6,4.4
			v10.4h6.4c0.6,0,1.2,0.5,1.2,1.2c0,0.6-0.5,1.2-1.2,1.2h-15c-0.6,0-1.2-0.5-1.2-1.2c0-0.6,0.5-1.2,1.2-1.2h6.4V37.3
			c-3.7-0.3-7.1-1.9-9.6-4.4c-2.8-2.8-4.5-6.6-4.5-10.8v-6.5c0-0.6,0.5-1.2,1.2-1.2c0.6,0,1.2,0.5,1.2,1.2v6.5
			c0,3.5,1.5,6.8,3.8,9.1c2.3,2.3,5.6,3.8,9.1,3.8s6.8-1.5,9.1-3.8c2.3-2.3,3.8-5.6,3.8-9.1L48.1,15.5L48.1,15.5z M35.2,0
			c2.5,0,4.7,1,6.4,2.6s2.6,3.9,2.6,6.4v13.1c0,2.5-1,4.7-2.6,6.4c-1.6,1.6-3.9,2.6-6.4,2.6s-4.7-1-6.4-2.6
			c-1.6-1.6-2.6-3.9-2.6-6.4V9c0-2.5,1-4.7,2.6-6.4C30.5,1,32.8,0,35.2,0z M35.2,2.3c-1.8,0-3.5,0.7-4.7,2c-1.2,1.2-2,2.9-2,4.7
			v13.1c0,1.8,0.8,3.5,2,4.7c1.2,1.2,2.9,2,4.7,2c1.8,0,3.5-0.8,4.7-2c1.2-1.2,2-2.9,2-4.7V9c0-1.8-0.8-3.5-2-4.7
			C38.7,3.1,37.1,2.3,35.2,2.3L35.2,2.3z"/>
	</g>
</g>
<g id="Layer_4" class="st0">
	<g class="st1">
		<g>
			<path class="st3" d="M42.3,27.6L42.3,27.6L42.3,27.6l-1.7-1.7L28.6,13.5l-2.3-2.4v0l-8.5-8.7c-0.5-0.5-1.1-0.8-1.6-0.8
				c-0.2,0-0.5,0.1-0.6,0.2c-0.5,0.5-0.2,1.4,0.5,2.2l10.1,10.4l2.3,2.4L39,27.6l1.7,1.7l2.7,2.8l1.6,1.7l6.1,6.3
				c0.5,0.5,1.1,0.8,1.6,0.8c0.2,0,0.5-0.1,0.6-0.2c0.5-0.5,0.2-1.4-0.5-2.2l-6.1-6.3l-1.6-1.7L42.3,27.6z"/>
			<polygon class="st3" points="40.7,25.9 40.7,25.9 28.6,13.5 28.6,13.5 28.6,13.5 			"/>
			<path class="st3" d="M37.1,28.5c-0.6,0.2-1.2,0.3-1.9,0.3c-1.8,0-3.5-0.7-4.7-2c-1.2-1.2-2-2.9-2-4.7v-2.3l-1.4-1.5l-0.9-0.9v4.8
				c0,2.5,1,4.7,2.6,6.4c1.6,1.6,3.9,2.6,6.4,2.6c1.3,0,2.5-0.3,3.6-0.8L37.6,29L37.1,28.5z"/>
			<path class="st3" d="M41.7,33.2c-1.9,1.1-4.1,1.8-6.5,1.8c-3.5,0-6.8-1.5-9.1-3.8c-2.3-2.3-3.8-5.6-3.8-9.1v-6.5
				c0-0.6-0.5-1.2-1.2-1.2c-0.6,0-1.2,0.5-1.2,1.2v6.5c0,4.2,1.7,8,4.5,10.8c2.5,2.5,5.9,4.1,9.6,4.4v10.4h-6.4
				c-0.6,0-1.2,0.5-1.2,1.2c0,0.6,0.5,1.2,1.2,1.2h15c0.6,0,1.2-0.5,1.2-1.2c0-0.6-0.5-1.2-1.2-1.2h-6.4V37.3c2.5-0.2,4.9-1,7-2.3
				L42,33.4L41.7,33.2z"/>
			<path class="st3" d="M28.6,10.6V9c0-1.8,0.7-3.5,2-4.7c1.2-1.2,2.9-2,4.7-2c1.8,0,3.5,0.7,4.7,2c1.2,1.2,2,2.9,2,4.7v13.1
				c0,0.7-0.1,1.3-0.3,1.9l0.5,0.5l1.3,1.3c0.5-1.2,0.8-2.4,0.8-3.8V9c0-2.5-1-4.7-2.6-6.4C40,1,37.7,0,35.2,0c-2.5,0-4.7,1-6.4,2.6
				c-1.5,1.5-2.4,3.4-2.6,5.6l1.4,1.4L28.6,10.6z"/>
			<path class="st3" d="M47.9,30.5c1.6-2.4,2.6-5.3,2.6-8.4v-6.5c0-0.6-0.5-1.2-1.2-1.2c-0.6,0-1.2,0.5-1.2,1.2l0,0v6.5
				c0,2.4-0.7,4.7-1.9,6.7l0.2,0.2L47.9,30.5z"/>
		</g>
		<path class="st3" d="M16.1,4c-0.8-0.8-1-1.8-0.5-2.2C16,1.4,17,1.6,17.8,2.4l35,36c0.8,0.8,1,1.8,0.5,2.2
			c-0.5,0.5-1.4,0.2-2.2-0.6L16.1,4z"/>
	</g>
</g>
<g id="Layer_5" class="st0">
	<path class="st4" d="M57.6,25.2C57.4,25,57.2,25,57,25s-0.4,0.1-0.6,0.2l-1,1c-0.1-4.5-1.7-8.9-4.7-12.3c-2.9-3.5-6.9-5.8-11.4-6.6
		s-9.1-0.1-13,2.1s-7.1,5.6-8.8,9.8c-1.7,4.2-1.9,8.9-0.6,13.2c1.4,4.4,4.2,8,7.9,10.6c3.7,2.5,8.3,3.6,12.8,3.2
		c4.5-0.5,8.7-2.4,11.9-5.6c0.2-0.2,0.2-0.4,0.2-0.6c0-0.2-0.1-0.4-0.2-0.6c-0.2-0.2-0.4-0.2-0.6-0.2c-0.2,0-0.4,0.1-0.6,0.2
		c-2.9,3-6.8,4.8-10.9,5.2c-4.1,0.4-8.3-0.6-11.8-2.9s-6.1-5.7-7.3-9.7c-1.2-4-1-8.2,0.5-12.1c1.6-3.8,4.4-7.1,8-9.1s7.9-2.7,12-2
		s7.8,2.9,10.5,6.1c2.7,3.2,4.2,7.2,4.3,11.3l-1-1c-0.2-0.2-0.4-0.2-0.6-0.2s-0.4,0.1-0.6,0.2c-0.2,0.2-0.2,0.4-0.2,0.6
		c0,0.2,0.1,0.4,0.2,0.6l2.3,2.3c0.2,0.2,0.4,0.2,0.6,0.2s0.4-0.1,0.6-0.2l2.3-2.3c0.2-0.2,0.3-0.2,0.3-0.4
		C57.9,25.6,57.8,25.3,57.6,25.2z"/>
</g>
<g id="Layer_6">
	<path class="st5" d="M57.6,25.2C57.4,25,57.2,25,57,25c-0.2,0-0.4,0.1-0.6,0.2l-1,1c-0.1-4.5-1.7-8.9-4.7-12.3
		c-2.9-3.5-6.9-5.8-11.4-6.6s-9.1-0.1-13,2.1s-7.1,5.6-8.8,9.8c-1.7,4.2-1.9,8.9-0.6,13.2s4.1,8,7.9,10.6c3.7,2.5,8.3,3.6,12.8,3.2
		c4.5-0.5,8.7-2.4,11.9-5.6c0.2-0.2,0.2-0.4,0.2-0.6s-0.1-0.4-0.2-0.6c-0.2-0.2-0.4-0.2-0.6-0.2c-0.2,0-0.4,0.1-0.6,0.2
		c-2.9,3-6.8,4.8-10.9,5.2c-4.1,0.4-8.3-0.6-11.8-2.9c-3.5-2.3-6.1-5.7-7.3-9.7c-1.2-4-1-8.2,0.5-12.1c1.6-3.8,4.4-7.1,8-9.1
		c3.6-2,7.9-2.7,12-2c4.1,0.7,7.9,2.9,10.5,6.1s4.2,7.2,4.3,11.3l-1-1c-0.2-0.2-0.4-0.2-0.6-0.2c-0.2,0-0.4,0.1-0.6,0.2
		c-0.2,0.2-0.2,0.4-0.2,0.6c0,0.2,0.1,0.4,0.2,0.6l2.3,2.3c0.2,0.2,0.4,0.2,0.6,0.2c0.2,0,0.4-0.1,0.6-0.2l2.3-2.3
		c0.2-0.2,0.5-0.4,0.5-0.6C58.1,25.5,57.8,25.3,57.6,25.2z"/>
</g>
</svg>
