<svg width="3007" height="1290" viewBox="0 0 3007 1290" fill="none" xmlns="http://www.w3.org/2000/svg">
<path d="M2946.88 601.474V571.713H2958.2V565.989H2929.07V571.713H2940.52V601.474H2946.88ZM2970.79 601.474V585.449L2970.54 574.892H2971.04L2981.6 594.606L2992.03 574.892H2992.54L2992.41 585.449V601.474H2998.26V565.989H2990.63L2981.98 582.905H2981.6L2972.83 565.989H2964.81V601.474H2970.79Z" fill="black"/>
<g clip-path="url(#clip0_27_5)">
<path d="M2034.21 598.406C2057.71 581.247 2082.16 576.71 2108.3 581.657C2146.4 588.852 2173 617.19 2175.17 656.016C2177.18 691.719 2176.46 727.591 2176.33 763.378C2176.29 776.014 2167.02 784.028 2154.89 783.844C2143.06 783.675 2134.74 775.138 2134.65 762.276C2134.46 734.008 2134.6 705.74 2134.54 677.472C2134.54 672.765 2134.36 668.044 2133.93 663.366C2132.18 643.663 2123.43 628.469 2104.06 621.925C2083.39 614.943 2063.56 616.766 2046.45 631.791C2038.25 638.985 2034.19 648.214 2034.21 659.267C2034.28 693.189 2034.24 727.111 2034.18 761.032C2034.15 772.24 2029.38 779.661 2020.54 782.7C2006.13 787.647 1992.29 778.021 1992.25 762.672C1992.12 726.87 1992.2 691.055 1992.2 655.253C1992.2 605.077 1992.29 554.916 1992.16 504.74C1992.11 483.087 1986.06 463.78 1968.39 449.716C1956.15 439.978 1941.71 436.077 1926.41 434.847C1921.26 434.437 1916.05 434.466 1910.88 434.466C1689.47 434.452 1468.04 434.508 1246.63 434.31C1235.2 434.31 1223.31 433.702 1212.43 430.579C1175.06 419.837 1155.36 392.558 1147.29 355.994C1145.08 345.987 1144.39 335.457 1144.36 325.167C1144.12 246.483 1144.26 167.813 1144.19 89.1291C1144.16 61.6809 1123.46 41.1159 1096.97 41.8932C1073.55 42.5858 1054.05 62.0484 1053.36 85.4543C1053.26 88.9878 1053.3 92.5213 1053.3 96.0548C1053.3 294.397 1053.3 492.74 1053.29 691.083C1053.29 735.209 1026.57 770.347 985.912 779.972C931.202 792.919 878.612 752.213 878.443 696.016C878.118 587.184 878.4 478.352 878.174 369.52C878.16 361.421 877.354 352.856 874.641 345.322C867.984 326.807 851.278 316.305 830.46 316.249C799.367 316.164 768.273 316.404 737.18 316.319C713.281 316.249 692.731 308.744 678.499 288.362C671.036 277.677 667.093 265.55 666.598 252.646C665.976 236.179 666.146 219.685 666.146 203.191C666.146 144.068 666.146 84.9313 666.245 25.8087C666.273 9.66768 677.368 0.367493 692.279 3.68899C700.744 5.58295 705.931 10.9256 707.571 19.3212C708.334 23.2081 708.306 27.2787 708.32 31.2786C708.362 99.5883 708.348 167.912 708.362 236.222C708.362 239.515 708.362 242.822 708.546 246.116C709.493 263.274 720.432 274.087 737.632 274.228C768.485 274.469 799.353 274.257 830.206 274.483C865.44 274.737 892.138 290.016 909.635 320.757C917.267 334.157 920.221 348.856 920.221 364.163C920.249 473.235 920.334 582.293 920.164 691.366C920.136 707.21 924.715 720.736 937.336 730.531C951.738 741.697 967.822 743.916 984.499 736.227C1001.73 728.284 1010.24 714.121 1011.21 695.38C1011.52 689.274 1011.28 683.14 1011.28 677.005C1011.28 480.783 1011.27 284.56 1011.31 88.3376C1011.31 47.1087 1038.83 11.7595 1077.86 2.4876C1133.44 -10.7136 1185.81 30.3458 1186.18 87.9701C1186.56 148.04 1186.27 208.109 1186.27 268.179C1186.27 288.914 1185.33 309.705 1186.65 330.34C1187.41 342.269 1190.22 354.679 1194.99 365.619C1202.56 382.99 1217.47 391.625 1236.52 392.502C1241.23 392.714 1245.95 392.572 1250.66 392.572C1471.6 392.572 1692.55 392.601 1913.5 392.53C1934.96 392.53 1955.74 395.47 1975.22 404.982C2009.63 421.787 2029.4 449.942 2032.44 487.454C2035.17 521.164 2033.77 555.213 2034.19 589.12C2034.22 591.622 2034.19 594.109 2034.19 598.42L2034.21 598.406Z" fill="black"/>
<path d="M1367.54 609.672C1368.88 608.569 1370.49 607.269 1372.06 605.926C1394.77 586.336 1421.09 581.573 1449.41 588.824C1476.48 595.75 1495.09 619.057 1497.03 648.936C1498.57 672.625 1498.1 696.455 1498.37 720.228C1498.53 734.362 1498.57 748.496 1498.33 762.616C1498.15 772.835 1492.97 779.973 1484.54 782.7C1475.55 785.612 1466.03 783.534 1461.06 776.142C1458.37 772.142 1456.69 766.658 1456.62 761.824C1456.23 730.503 1456.45 699.182 1456.37 667.861C1456.37 663.409 1456.06 658.915 1455.42 654.505C1452.64 635.042 1440.84 624.484 1421.8 624.187C1403 623.905 1387.48 636.06 1384.2 653.925C1383.31 658.759 1382.89 663.734 1382.87 668.653C1382.75 700.214 1382.87 731.761 1382.76 763.323C1382.73 772.92 1377.63 779.831 1369.15 782.7C1360.32 785.683 1350.62 783.647 1345.73 776.128C1342.85 771.69 1341.08 765.711 1341.01 760.383C1340.57 730.009 1340.8 699.635 1340.8 669.246C1340.8 665.953 1340.83 662.646 1340.7 659.353C1339.94 638.731 1328.33 625.798 1309.3 624.258C1289.24 622.647 1272.13 635.155 1268.41 654.392C1267.56 658.745 1267.19 663.268 1267.18 667.72C1267.07 699.507 1267.09 731.309 1267.11 763.097C1267.11 771.704 1263.38 778.192 1255.65 781.824C1247.79 785.527 1239.99 784.665 1233 779.365C1226.84 774.686 1225.09 767.973 1225.09 760.581C1225.09 710.419 1225.06 660.257 1225.12 610.096C1225.13 598.887 1230.42 591.509 1239.99 588.64C1249.75 585.714 1258.6 589.191 1264.89 598.435C1265.29 599.014 1265.72 599.537 1266.29 600.272C1302.1 578.972 1335.94 579.354 1367.51 609.672H1367.54Z" fill="black"/>
<path d="M1695.19 760.369C1693.23 761.768 1691.69 762.757 1690.26 763.902C1635.28 808.142 1556.59 779.181 1542.82 709.642C1533.71 663.593 1550.62 621.318 1588.8 599.523C1653.29 562.704 1734.61 603.693 1737.51 680.257C1738.53 707.281 1737.8 734.376 1737.76 761.443C1737.75 774.375 1730.61 782.729 1719.06 783.761C1706.99 784.835 1698.36 777.768 1696.1 764.976C1695.86 763.634 1695.57 762.291 1695.19 760.383V760.369ZM1697.14 685.84C1697.14 659.056 1683.73 637.148 1661.81 628.159C1632.5 616.131 1599.57 629.261 1586.66 658.137C1572.49 689.854 1585.15 727.776 1614.59 741.74C1654.43 760.637 1697.14 731.719 1697.14 685.84V685.84Z" fill="black"/>
<path d="M2590.06 700.949C2592.59 713.161 2597.99 722.291 2605.69 730.121C2627.14 751.888 2662.2 754.602 2689.53 736.722C2699.97 729.881 2709.26 729.726 2716.83 736.27C2726.59 744.679 2726.52 756.241 2716.11 763.803C2695.61 778.714 2672.43 785.626 2647.16 784.834C2604.8 783.492 2569.86 759.563 2556.53 722.037C2541.4 679.465 2552.27 621.572 2601.35 596.456C2632.37 580.583 2684.17 580.018 2713.43 613.671C2731.08 633.982 2737.1 658.222 2736.58 684.426C2736.4 693.387 2729.19 700.087 2719.99 700.638C2712.47 701.09 2704.92 700.921 2697.39 700.935C2664.64 700.963 2631.91 700.935 2599.16 700.949C2596.6 700.949 2594.06 700.949 2590.07 700.949H2590.06ZM2696.95 666.434C2692.94 637.134 2670.53 620.371 2639.77 622.745C2614.98 624.653 2591.18 646.137 2591.77 666.434H2696.94H2696.95Z" fill="black"/>
<path d="M190.828 217.735C191.902 158.344 233.299 117.722 291.796 118.627C348.98 119.517 389.104 162.089 388.129 220.802C387.154 279.486 345.588 318.539 285.323 317.408C230.585 316.376 189.825 273.38 190.828 217.735V217.735ZM347.609 213.24C347.453 196.449 340.387 177.891 321.604 165.538C287.514 143.107 242.273 161.792 233.355 201.707C223.49 245.805 250.852 281.154 293.676 279.628C325.25 278.511 347.567 253.084 347.609 213.24Z" fill="black"/>
<path d="M572.315 299.5C553.871 314.044 533.024 318.708 510.368 317.634C468.717 315.669 435.688 285.917 432.126 244.406C429.978 219.374 430.897 194.074 430.529 168.888C430.388 159.7 430.416 150.513 430.557 141.326C430.755 128.379 439.263 119.828 451.673 119.857C463.954 119.885 472.463 128.563 472.519 141.637C472.646 169.905 472.406 198.173 472.675 226.441C472.731 232.957 473.424 239.699 475.219 245.946C481.989 269.635 504.446 282.681 531.243 279.105C558.69 275.444 572.993 259.204 573.021 231.6C573.064 200.972 572.993 170.357 573.163 139.729C573.219 129.948 579.48 122.429 588.54 120.309C598.193 118.047 608.1 121.807 612.1 130.16C613.951 134.033 614.842 138.74 614.856 143.079C615.04 192.774 615.054 242.483 614.927 292.193C614.884 308.843 605.443 317.775 590.532 315.938C582.816 314.991 578.208 310.977 572.3 299.5H572.315Z" fill="black"/>
<path d="M2365.07 601.813C2378.61 596.795 2391.33 589.686 2404.84 587.481C2462.45 578.039 2505.67 612.894 2507.66 669.557C2508.75 700.383 2508.03 731.266 2507.96 762.121C2507.93 774.87 2499.65 783.605 2487.89 783.845C2475.16 784.099 2466.27 775.605 2466.12 762.177C2465.86 738.39 2466.12 714.588 2465.98 690.801C2465.93 681.642 2466.21 672.327 2464.77 663.338C2459.78 632.229 2432.22 620.696 2404.86 624.978C2379.09 629.007 2365.76 645.289 2365.76 671.14C2365.76 701.528 2365.85 731.916 2365.71 762.305C2365.66 772.764 2361.02 779.407 2352.31 782.629C2344.01 785.696 2334.63 783.887 2329.24 776.82C2326.45 773.145 2324.23 767.944 2324.2 763.421C2323.86 711.606 2323.92 659.776 2324.04 607.961C2324.07 597.615 2330.47 589.855 2339.65 587.947C2350.71 585.643 2359.9 590.279 2364.46 600.47C2364.93 601.502 2365.38 602.519 2365.07 601.827V601.813Z" fill="black"/>
<path d="M84.7716 317.535C61.2679 317.493 38.9797 312.673 18.6701 300.405C14.8683 298.101 11.2219 295.415 7.90054 292.461C-1.69599 283.924 -2.57225 272.631 5.41307 263.854C14.3595 254.017 26.9522 252.575 36.0965 261.31C52.1378 276.631 71.3733 281.253 92.6722 279.345C97.9863 278.864 103.343 277.423 108.36 275.543C115.271 272.956 120.656 268.448 121.306 260.335C121.985 251.939 117.434 246.045 110.537 242.837C102.509 239.105 93.8594 236.632 85.3652 233.989C70.1437 229.268 54.1589 226.357 39.6864 219.982C12.5645 208.039 1.66774 182.188 10.9392 156.775C15.0944 145.369 23.2211 137.34 33.2416 131.192C64.137 112.196 114.141 114.91 142.831 137.143C147.071 140.422 150.901 144.379 154.308 148.535C159.155 154.443 160.611 161.213 156.498 168.195C152.527 174.965 146.011 178.386 138.634 176.93C132.443 175.7 125.829 173.114 120.981 169.17C102.156 153.849 81.4786 153.411 59.685 160.026C53.4946 161.905 48.8165 165.948 48.6752 173.142C48.5338 180.195 51.7845 185.905 58.3141 188.166C70.0447 192.223 82.157 195.177 94.0148 198.88C106.551 202.781 119.427 206.018 131.369 211.346C150.675 219.94 162.434 234.851 162.477 256.9C162.533 279.119 152.145 295.571 133.093 306.567C118.169 315.175 101.746 317.578 84.7999 317.521L84.7716 317.535Z" fill="black"/>
<path d="M2846.25 586.11C2868.22 586.336 2888.78 591.127 2906.32 605.148C2910.32 608.357 2913.94 612.187 2917.16 616.187C2921.8 621.939 2923.08 628.568 2919.31 635.268C2915.63 641.798 2909.44 645.529 2902.25 644.2C2895.82 643.013 2888.75 640.738 2883.82 636.667C2865.01 621.162 2844.29 620.992 2822.51 627.31C2816.69 629.006 2811.92 632.596 2811.49 639.607C2811.03 647.027 2813.92 652.935 2820.84 655.409C2831.64 659.281 2842.81 662.151 2853.77 665.571C2866.99 669.698 2880.61 672.907 2893.25 678.391C2912.23 686.631 2924.4 700.807 2924.96 722.772C2925.57 746.064 2914.94 762.856 2895.13 774.219C2881.91 781.795 2867.36 784.41 2852.37 784.82C2824.64 785.569 2798.5 780.071 2775.42 763.803C2767.7 758.361 2760.97 751.944 2763.08 741.117C2766.3 724.552 2786.24 717.316 2798.75 728.722C2816.55 744.962 2837.21 749.669 2860.27 745.909C2865.28 745.089 2870.44 743.393 2874.8 740.863C2886.76 733.937 2887.74 720.567 2876.47 712.609C2870.48 708.383 2863.19 705.627 2856.11 703.394C2838.2 697.754 2819.43 694.39 2802.21 687.196C2776.8 676.553 2765.95 653.331 2772.22 628.625C2776.53 611.692 2788.49 601.516 2803.63 594.548C2817.1 588.343 2831.43 585.926 2846.23 586.096L2846.25 586.11Z" fill="black"/>
<path d="M1773.72 685.698C1774.35 640.71 1798.8 603.622 1838.31 591.41C1876.37 579.637 1910.97 585.799 1939.36 615.707C1948.26 625.078 1948.74 633.247 1941.38 641.247C1933.28 650.038 1922.63 650.773 1913.18 642.349C1904.83 634.901 1896.45 627.933 1885.19 625.374C1849.87 617.36 1818.8 639.65 1815.42 675.706C1813.4 697.26 1817.18 717.161 1834.04 732.482C1854.25 750.856 1886.25 752.383 1908.42 736.369C1919.13 728.638 1927.76 728.016 1935.44 734.404C1945.17 742.503 1945.58 753.923 1936.14 762.333C1923.71 773.386 1909.16 780.1 1892.82 783.223C1838.7 793.583 1788.53 761.81 1776.9 709.401C1775.17 701.642 1774.76 693.599 1773.75 685.698H1773.72Z" fill="black"/>
<path d="M2226.39 685.684C2226.39 660.045 2226.24 634.391 2226.45 608.752C2226.56 594.703 2235.84 586.562 2249.67 587.622C2259.13 588.343 2266.32 595 2267.79 604.441C2268.04 606.067 2268.19 607.72 2268.19 609.36C2268.21 659.946 2268.26 710.517 2268.17 761.103C2268.16 772.467 2263.25 779.647 2254.28 782.431C2239.55 787.011 2226.58 777.696 2226.41 761.908C2226.15 736.51 2226.34 711.097 2226.34 685.684H2226.39V685.684Z" fill="black"/>
<path d="M2247.03 519.425C2259.3 519.341 2269.64 529.376 2269.88 541.573C2270.12 553.941 2259.59 564.527 2247.07 564.499C2234.9 564.47 2224.61 554.124 2224.67 541.969C2224.74 529.559 2234.7 519.51 2247.03 519.425Z" fill="black"/>
</g>
<path d="M2969.66 1059.83C2986.8 1059.83 3001.09 1045.7 3001.09 1027.13C3001.09 1008.55 2986.8 994.425 2969.66 994.425C2952.51 994.425 2938.22 1008.55 2938.22 1027.13C2938.22 1045.7 2952.51 1059.83 2969.66 1059.83ZM2969.66 1053.48C2955.21 1053.48 2945.05 1041.57 2945.05 1028.87V1025.38C2945.05 1012.68 2955.21 1000.78 2969.66 1000.78C2984.1 1000.78 2994.26 1012.68 2994.26 1025.38V1028.87C2994.26 1041.57 2984.1 1053.48 2969.66 1053.48ZM2964.1 1031.57H2969.66L2976.64 1044.27H2983.78L2976 1030.78C2979.5 1029.35 2982.2 1026.17 2982.2 1021.09C2982.2 1015.22 2978.39 1011.09 2972.04 1011.09H2957.75V1044.27H2964.1V1031.57ZM2964.1 1026.49V1016.33H2971.72C2974.1 1016.33 2975.37 1017.6 2975.37 1019.67V1023.16C2975.37 1025.38 2974.1 1026.49 2971.72 1026.49H2964.1Z" fill="black"/>
<path d="M39.5393 1185.74V1124.85H79.9243C106.566 1124.85 121.789 1107.72 121.789 1081.5C121.789 1055.28 106.566 1038.16 79.9243 1038.16H19.0296V1185.74H39.5393ZM39.5393 1056.34H79.0786C92.1878 1056.34 100.011 1063.53 100.011 1076.22V1086.79C100.011 1099.47 92.1878 1106.66 79.0786 1106.66H39.5393V1056.34ZM185.577 1188.28C215.39 1188.28 235.476 1165.87 235.476 1130.98C235.476 1096.09 215.39 1073.68 185.577 1073.68C155.764 1073.68 135.677 1096.09 135.677 1130.98C135.677 1165.87 155.764 1188.28 185.577 1188.28ZM185.577 1171.36C168.45 1171.36 156.609 1160.58 156.609 1139.22V1122.73C156.609 1101.38 168.45 1090.59 185.577 1090.59C202.703 1090.59 214.544 1101.38 214.544 1122.73V1139.22C214.544 1160.58 202.703 1171.36 185.577 1171.36ZM279.173 1185.74H302.009L316.81 1134.36L325.902 1102.22H326.325L335.628 1134.36L350.429 1185.74H373.687L402.866 1076.22H384.471L372.841 1122.94L362.481 1167.98H361.847L349.16 1122.94L335.205 1076.22H317.656L304.123 1122.94L291.648 1167.98H291.226L280.231 1122.94L268.813 1076.22H249.783L279.173 1185.74ZM467.01 1188.28C487.52 1188.28 503.378 1178.76 510.989 1164.6L498.303 1153.81C492.383 1165.02 482.445 1171.57 468.701 1171.57C449.037 1171.57 437.831 1158.47 437.831 1140.28V1135.84H515.007V1127.6C515.007 1096.94 497.669 1073.68 467.01 1073.68C436.562 1073.68 417.321 1096.3 417.321 1130.98C417.321 1165.65 436.562 1188.28 467.01 1188.28ZM467.01 1089.54C483.502 1089.54 494.074 1101.8 494.074 1119.98V1122.1H437.831V1120.62C437.831 1102.65 449.883 1089.54 467.01 1089.54ZM561.472 1185.74V1113.85C561.472 1103.07 572.044 1095.88 590.228 1095.88H599.954V1076.22H593.4C575.85 1076.22 566.124 1086.36 562.53 1097.15H561.472V1076.22H541.808V1185.74H561.472ZM661.931 1188.28C682.441 1188.28 698.299 1178.76 705.911 1164.6L693.224 1153.81C687.304 1165.02 677.366 1171.57 663.623 1171.57C643.959 1171.57 632.752 1158.47 632.752 1140.28V1135.84H709.928V1127.6C709.928 1096.94 692.59 1073.68 661.931 1073.68C631.484 1073.68 612.243 1096.3 612.243 1130.98C612.243 1165.65 631.484 1188.28 661.931 1188.28ZM661.931 1089.54C678.423 1089.54 688.995 1101.8 688.995 1119.98V1122.1H632.752V1120.62C632.752 1102.65 644.804 1089.54 661.931 1089.54ZM806.082 1185.74H825.746V1029.28H806.082V1094.19H805.236C800.162 1080.66 788.744 1073.68 773.732 1073.68C746.244 1073.68 729.752 1095.46 729.752 1130.98C729.752 1166.5 746.244 1188.28 773.732 1188.28C788.744 1188.28 800.162 1181.3 805.236 1167.77H806.082V1185.74ZM779.441 1171.15C761.891 1171.15 750.685 1158.68 750.685 1140.28V1121.67C750.685 1103.28 761.891 1090.8 779.441 1090.8C794.241 1090.8 806.082 1099.26 806.082 1110.89V1151.07C806.082 1162.69 794.241 1171.15 779.441 1171.15ZM910.383 1185.74H930.047V1167.77H930.893C935.967 1181.3 947.385 1188.28 962.397 1188.28C989.884 1188.28 1006.38 1166.5 1006.38 1130.98C1006.38 1095.46 989.884 1073.68 962.397 1073.68C947.385 1073.68 935.967 1080.66 930.893 1094.19H930.047V1029.28H910.383V1185.74ZM956.688 1171.15C941.888 1171.15 930.047 1162.69 930.047 1151.07V1110.89C930.047 1099.26 941.888 1090.8 956.688 1090.8C974.238 1090.8 985.444 1103.28 985.444 1121.67V1140.28C985.444 1158.68 974.238 1171.15 956.688 1171.15ZM1075.75 1146.2L1069.41 1166.71H1068.35L1062.64 1146.2L1038.33 1076.22H1018.66L1059.26 1190.18L1051.86 1211.33H1033.89V1228.03H1044.67C1061.37 1228.03 1066.66 1223.38 1071.73 1209.63L1119.31 1076.22H1100.28L1075.75 1146.2Z" fill="black"/>
<path d="M2035.71 1193.94C2022.94 1139.26 2010.3 1085.14 1997.67 1031.01C1997.3 1031.01 1996.95 1030.99 1996.59 1030.97C1983.85 1085.17 1971.12 1139.37 1958.38 1193.56H1903.59C1887.18 1121.81 1870.83 1050.32 1854.23 977.71C1869.69 977.71 1884.18 977.522 1898.65 977.999C1900.08 978.042 1902.11 981.988 1902.6 984.387C1907.7 1009.05 1912.6 1033.75 1917.46 1058.46C1922.44 1083.89 1927.29 1109.34 1932.24 1134.78C1932.54 1136.37 1933.2 1137.88 1934.32 1141.44C1939.26 1120.08 1943.75 1100.67 1948.24 1081.26C1955.69 1049.01 1963.22 1016.78 1970.5 984.489C1971.62 979.488 1973.46 977.305 1979.05 977.493C1991.89 977.927 2004.78 977.826 2017.64 977.536C2022.63 977.421 2024.73 978.852 2025.9 983.968C2037.17 1033.54 2048.75 1083.06 2060.25 1132.58C2060.84 1135.11 2061.52 1137.61 2063.24 1140.08C2067.18 1119.88 2071.03 1099.64 2075.05 1079.45C2081.4 1047.48 2087.89 1015.52 2094.26 983.549C2095.05 979.589 2096.43 977.363 2101.27 977.493C2114.07 977.854 2126.9 977.609 2140.73 977.609C2137.42 991.976 2134.36 1005.42 2131.21 1018.86C2118.19 1074.43 2105.05 1129.98 2092.29 1185.62C2090.76 1192.33 2088.07 1194.37 2081.19 1194.11C2066.42 1193.53 2051.61 1193.94 2035.71 1193.94V1193.94Z" fill="black"/>
<path d="M1559.63 1193.05V977.681C1570.41 977.681 1580.78 977.377 1591.12 977.941C1593.1 978.042 1595.46 981.251 1596.7 983.535C1615.37 1017.98 1633.87 1052.51 1652.44 1087.01C1653.65 1089.25 1654.99 1091.4 1656.93 1094.74C1665.61 1078.71 1673.7 1063.81 1681.76 1048.88C1693.53 1027.1 1705.39 1005.37 1716.92 983.462C1719.27 979.011 1722.04 977.291 1727.08 977.508C1735.97 977.898 1744.88 977.609 1754.19 977.609V1193.4H1729.3V1013.21C1728.83 1013.16 1728.36 1013.14 1727.9 1013.09C1704.55 1055.73 1681.18 1098.37 1656.83 1142.86C1632.67 1098.61 1609.32 1055.86 1584.97 1011.24V1193.04H1559.65L1559.63 1193.05Z" fill="black"/>
<path d="M1355.31 1193.47V978.404C1356.58 978.114 1357.5 977.724 1358.39 977.724C1389.7 977.825 1421.02 977.146 1452.28 978.317C1493.02 979.849 1517.12 1026.24 1495.92 1060.88C1489.55 1071.28 1479.7 1076.79 1465.94 1080.14C1470.79 1081.34 1473.54 1081.91 1476.2 1082.7C1496.22 1088.61 1508.42 1104.68 1510.08 1127.3C1512.32 1157.76 1495.28 1184.5 1468.77 1191.85C1464.83 1192.95 1460.68 1193.81 1456.63 1193.83C1424.11 1193.99 1391.58 1193.91 1359.06 1193.89C1358.11 1193.89 1357.18 1193.69 1355.31 1193.47V1193.47ZM1381.69 1170.14C1406.36 1170.14 1430.58 1171.17 1454.67 1169.8C1471.8 1168.82 1481.65 1156.04 1482 1139C1482.06 1135.88 1482 1132.75 1482 1129.63C1482 1105.93 1469.8 1093.71 1445.77 1093.56C1429.52 1093.44 1413.25 1093.53 1397 1093.53C1391.98 1093.53 1386.97 1093.53 1381.69 1093.53V1170.14ZM1381.52 1070.49C1404.85 1070.49 1427.36 1071.22 1449.79 1070.21C1463.17 1069.61 1471.6 1060.4 1473.91 1047.25C1474.66 1043.04 1474.69 1038.68 1474.69 1034.38C1474.7 1011.98 1463.99 1001.08 1441.53 1000.86C1423.37 1000.69 1405.19 1000.81 1387.01 1000.86C1385.19 1000.86 1383.35 1001.27 1381.52 1001.49V1070.52V1070.49Z" fill="black"/>
<path d="M2308.77 1158.21V1194.41C2296.88 1193.82 2285.12 1194.54 2273.97 1192.32C2260.64 1189.64 2254.93 1178.59 2252.03 1166.3C2251.3 1166.42 2250.54 1166.39 2250.48 1166.56C2243.15 1190.83 2220.94 1199.1 2196.84 1197.38C2173.51 1195.71 2158.06 1184.45 2152.84 1165.14C2145.03 1136.22 2158.44 1111.2 2187.87 1104.05C2203.19 1100.33 2219.52 1100.7 2235.4 1099.34C2238.97 1099.03 2242.6 1099.29 2246.84 1099.29C2247.41 1088.54 2249.11 1077.99 2240.21 1070.1C2230.66 1061.63 2218.77 1061.67 2207.95 1065.66C2199.25 1068.87 2191.82 1075.45 2182.9 1081.13C2175.43 1074.61 2166.6 1066.86 2157.37 1058.79C2165.81 1045.21 2177.46 1036.33 2192.31 1031.91C2213.27 1025.67 2234.52 1025.65 2255.42 1031.91C2279.84 1039.22 2293.26 1057.54 2293.51 1082.93C2293.73 1105.26 2293.56 1127.59 2293.56 1149.94C2293.56 1152.51 2293.56 1155.1 2293.56 1158.21H2308.73H2308.77ZM2247.1 1124.05C2233.82 1125.43 2221.57 1125.95 2209.63 1128.16C2201.3 1129.69 2197.73 1136.61 2197.52 1144.84C2197.33 1152.32 2198.67 1159.23 2206.25 1163.14C2215.41 1167.86 2233.17 1166.3 2240.57 1159.26C2243.65 1156.34 2246.23 1151.82 2246.83 1147.7C2247.85 1140.7 2247.1 1133.45 2247.1 1124.05Z" fill="black"/>
<path d="M2682.82 1197.69C2641.36 1197.9 2611.99 1172.18 2606.77 1131.26C2604.66 1114.67 2605.01 1098.27 2609.33 1082.02C2619.75 1042.85 2651.32 1024.94 2689.97 1027.83C2735.2 1031.23 2757.36 1063.19 2759.27 1104.97C2759.82 1117.06 2758.8 1129.59 2756.09 1141.37C2747.82 1177.27 2720.79 1197.51 2682.8 1197.69H2682.82ZM2653.46 1112.43C2653.83 1120.66 2653.65 1129.1 2654.7 1137.38C2656.61 1152.34 2666.86 1161.04 2681.66 1161.26C2697.35 1161.49 2708.72 1153.57 2710.03 1138.38C2711.5 1121.29 2711.47 1103.9 2710.03 1086.82C2708.79 1071.98 2697.28 1063.67 2682.38 1063.8C2667.23 1063.93 2656.54 1072.9 2654.66 1087.88C2653.65 1095.93 2653.81 1104.12 2653.43 1112.43H2653.46Z" fill="black"/>
<path d="M2792.63 1031.8H2838.85V1058.87C2840.38 1057.52 2841.02 1057.22 2841.21 1056.74C2850.32 1033.76 2871.31 1024.92 2894.82 1028.23C2917.31 1031.39 2931.65 1046.18 2935.75 1070.6C2936.77 1076.73 2937.35 1082.99 2937.38 1089.19C2937.54 1121.12 2937.46 1153.06 2937.46 1185V1193.4H2891.48C2891.37 1190.8 2891.15 1188.24 2891.15 1185.7C2891.12 1156.17 2891.13 1126.63 2891.13 1097.1C2891.13 1095.17 2891.18 1093.25 2891.12 1091.33C2890.39 1066.85 2871.02 1056.71 2849.75 1069.69C2841.72 1074.59 2838.75 1081.93 2838.78 1091.03C2838.88 1122.25 2838.82 1153.45 2838.82 1184.67V1193.91C2824.1 1193.91 2810.33 1194.05 2796.57 1193.68C2795.21 1193.63 2792.92 1190.37 2792.83 1188.5C2792.43 1180.12 2792.65 1171.71 2792.65 1163.29C2792.65 1122.48 2792.65 1081.66 2792.65 1040.83V1031.8H2792.63Z" fill="black"/>
<path d="M2444.9 1168.64C2454.41 1159.77 2463.57 1151.24 2472.97 1142.47C2482.95 1152.8 2495.69 1161.24 2512.16 1161.72C2518.12 1161.89 2524.28 1161.14 2530.06 1159.72C2536.71 1158.11 2539.87 1153.03 2539.74 1146.21C2539.59 1139.34 2535.35 1135.46 2529.14 1134.29C2518.68 1132.31 2508.05 1131.15 2497.53 1129.46C2493.48 1128.81 2489.45 1127.81 2485.52 1126.63C2462.69 1119.75 2452.08 1106.94 2449.87 1083.81C2447.97 1064.03 2458.92 1044.99 2477.65 1035.48C2509.07 1019.52 2554.86 1027.07 2580.09 1052.42C2570.95 1060.73 2561.79 1069.07 2553.37 1076.75C2544.46 1072.93 2534.2 1067.64 2523.36 1064.26C2517.95 1062.57 2511.35 1063.75 2505.47 1064.74C2498.91 1065.83 2494.61 1070.04 2494.47 1077.12C2494.32 1084.44 2498.26 1089.13 2505.24 1090.49C2516.89 1092.76 2528.68 1094.25 2540.35 1096.33C2544.62 1097.1 2548.84 1098.38 2552.93 1099.8C2593.63 1113.89 2591.38 1161.62 2566.38 1181.27C2552.06 1192.55 2535.54 1196.94 2517.67 1197.56C2489.37 1198.53 2464.49 1190.96 2444.87 1168.66L2444.9 1168.64Z" fill="black"/>
<path d="M2351.65 987.567H2393.24V1031.12H2425.51V1066.99H2394.08V1158.19H2422.75V1194.72C2407.83 1193.81 2392.93 1194.27 2378.62 1191.68C2359.45 1188.24 2348.04 1173.54 2347.51 1153.49C2346.83 1127.82 2347.06 1102.13 2346.9 1076.44C2346.89 1073.61 2346.9 1070.79 2346.9 1067.28H2324.64V1031.32C2326.95 1031.32 2329.5 1031.32 2332.03 1031.32C2347.57 1031.25 2351.67 1027.13 2351.68 1011.5C2351.68 1003.64 2351.68 995.791 2351.68 987.538L2351.65 987.567Z" fill="black"/>
<path d="M1306.92 999.607H1276.97V1172.02H1306.5V1193.43H1219.41V1172.18C1227.45 1172.18 1235.57 1171.98 1243.67 1172.26C1248.28 1172.41 1250.09 1171.06 1250.07 1166.2C1249.93 1112.19 1249.97 1058.17 1249.96 1004.16C1249.96 1002.99 1249.74 1001.82 1249.56 999.94H1218.87C1218.87 993.305 1218.58 987.379 1219.09 981.511C1219.2 980.095 1222 977.811 1223.59 977.797C1249.8 977.565 1276 977.551 1302.2 977.826C1303.79 977.84 1306.53 980.572 1306.7 982.248C1307.28 987.669 1306.92 993.19 1306.92 999.607V999.607Z" fill="black"/>
<path d="M1381.69 1170.15V1093.53C1386.97 1093.53 1391.98 1093.53 1397 1093.53C1413.25 1093.53 1429.52 1093.44 1445.77 1093.56C1469.8 1093.71 1481.99 1105.93 1482 1129.63C1482 1132.75 1482.05 1135.88 1482 1139C1481.67 1156.04 1471.8 1168.83 1454.67 1169.8C1430.58 1171.17 1406.36 1170.15 1381.69 1170.15V1170.15Z" fill="white"/>
<defs>
<clipPath id="clip0_27_5">
<rect width="2925" height="785.173" fill="white"/>
</clipPath>
</defs>
</svg>
