<?xml version="1.0" encoding="utf-8"?>
<!-- Generator: Adobe Illustrator 25.0.0, SVG Export Plug-In . SVG Version: 6.00 Build 0)  -->
<svg version="1.1" id="Layer_1" xmlns="http://www.w3.org/2000/svg" xmlns:xlink="http://www.w3.org/1999/xlink" x="0px" y="0px"
	 viewBox="0 0 3007 1290" style="enable-background:new 0 0 3007 1290;" xml:space="preserve">
<style type="text/css">
	.st0{fill:#393939;}
	.st1{clip-path:url(#SVGID_2_);}
	.st2{fill:#393939;stroke:#FFFFFF;stroke-miterlimit:10;}
</style>
<path class="st0" d="M2946.9,601.5v-29.8h11.3V566h-29.1v5.7h11.4v29.8H2946.9z M2970.8,601.5v-16l-0.2-10.6h0.5l10.6,19.7
	l10.4-19.7h0.5l-0.1,10.6v16h5.9V566h-7.6l-8.6,16.9h-0.4l-8.8-16.9h-8v35.5H2970.8z"/>
<g>
	<defs>
		<rect id="SVGID_1_" width="2925" height="785.2"/>
	</defs>
	<clipPath id="SVGID_2_">
		<use xlink:href="#SVGID_1_"  style="overflow:visible;"/>
	</clipPath>
	<g class="st1">
		<path class="st2" d="M2034.2,598.4c23.5-17.2,47.9-21.7,74.1-16.7c38.1,7.2,64.7,35.5,66.9,74.4c2,35.7,1.3,71.6,1.2,107.4
			c0,12.6-9.3,20.7-21.4,20.5c-11.8-0.2-20.1-8.7-20.2-21.6c-0.2-28.3,0-56.5-0.1-84.8c0-4.7-0.2-9.4-0.6-14.1
			c-1.8-19.7-10.5-34.9-29.9-41.4c-20.7-7-40.5-5.2-57.6,9.9c-8.2,7.2-12.3,16.4-12.2,27.5c0.1,33.9,0,67.8,0,101.8
			c0,11.2-4.8,18.6-13.6,21.7c-14.4,4.9-28.2-4.7-28.3-20c-0.1-35.8-0.1-71.6-0.1-107.4c0-50.2,0.1-100.3,0-150.5
			c-0.1-21.7-6.1-41-23.8-55c-12.2-9.7-26.7-13.6-42-14.9c-5.2-0.4-10.4-0.4-15.5-0.4c-221.4,0-442.8,0-664.2-0.2
			c-11.4,0-23.3-0.6-34.2-3.7c-37.4-10.7-57.1-38-65.1-74.6c-2.2-10-2.9-20.5-2.9-30.8c-0.2-78.7-0.1-157.4-0.2-236
			c0-27.4-20.7-48-47.2-47.2c-23.4,0.7-42.9,20.2-43.6,43.6c-0.1,3.5-0.1,7.1-0.1,10.6c0,198.3,0,396.7,0,595
			c0,44.1-26.7,79.3-67.4,88.9c-54.7,12.9-107.3-27.8-107.5-84c-0.3-108.8,0-217.7-0.3-326.5c0-8.1-0.8-16.7-3.5-24.2
			c-6.7-18.5-23.4-29-44.2-29.1c-31.1-0.1-62.2,0.2-93.3,0.1c-23.9-0.1-44.4-7.6-58.7-28c-7.5-10.7-11.4-22.8-11.9-35.7
			c-0.6-16.5-0.5-33-0.5-49.5c0-59.1,0-118.3,0.1-177.4c0-16.1,11.1-25.4,26-22.1c8.5,1.9,13.7,7.2,15.3,15.6c0.8,3.9,0.7,8,0.7,12
			c0,68.3,0,136.6,0,204.9c0,3.3,0,6.6,0.2,9.9c0.9,17.2,11.9,28,29.1,28.1c30.9,0.2,61.7,0,92.6,0.3c35.2,0.3,61.9,15.5,79.4,46.3
			c7.6,13.4,10.6,28.1,10.6,43.4c0,109.1,0.1,218.1-0.1,327.2c0,15.8,4.6,29.4,17.2,39.2c14.4,11.2,30.5,13.4,47.2,5.7
			c17.2-7.9,25.7-22.1,26.7-40.8c0.3-6.1,0.1-12.2,0.1-18.4c0-196.2,0-392.4,0-588.7c0-41.2,27.5-76.6,66.5-85.8
			c55.6-13.2,108,27.9,108.3,85.5c0.4,60.1,0.1,120.1,0.1,180.2c0,20.7-0.9,41.5,0.4,62.2c0.8,11.9,3.6,24.3,8.3,35.3
			c7.6,17.4,22.5,26,41.5,26.9c4.7,0.2,9.4,0.1,14.1,0.1c220.9,0,441.9,0,662.8,0c21.5,0,42.2,2.9,61.7,12.5
			c34.4,16.8,54.2,45,57.2,82.5c2.7,33.7,1.3,67.8,1.8,101.7C2034.2,591.6,2034.2,594.1,2034.2,598.4L2034.2,598.4z"/>
		<path class="st2" d="M1367.5,609.7c1.3-1.1,2.9-2.4,4.5-3.7c22.7-19.6,49-24.4,77.3-17.1c27.1,6.9,45.7,30.2,47.6,60.1
			c1.5,23.7,1.1,47.5,1.3,71.3c0.2,14.1,0.2,28.3,0,42.4c-0.2,10.2-5.4,17.4-13.8,20.1c-9,2.9-18.5,0.8-23.5-6.6
			c-2.7-4-4.4-9.5-4.4-14.3c-0.4-31.3-0.2-62.6-0.2-94c0-4.5-0.3-8.9-0.9-13.4c-2.8-19.5-14.6-30-33.6-30.3
			c-18.8-0.3-34.3,11.9-37.6,29.7c-0.9,4.8-1.3,9.8-1.3,14.7c-0.1,31.6,0,63.1-0.1,94.7c0,9.6-5.1,16.5-13.6,19.4
			c-8.8,3-18.5,0.9-23.4-6.6c-2.9-4.4-4.7-10.4-4.7-15.7c-0.4-30.4-0.2-60.7-0.2-91.1c0-3.3,0-6.6-0.1-9.9
			c-0.8-20.6-12.4-33.6-31.4-35.1c-20.1-1.6-37.2,10.9-40.9,30.1c-0.8,4.4-1.2,8.9-1.2,13.3c-0.1,31.8-0.1,63.6-0.1,95.4
			c0,8.6-3.7,15.1-11.5,18.7c-7.9,3.7-15.7,2.8-22.7-2.5c-6.2-4.7-7.9-11.4-7.9-18.8c0-50.2,0-100.3,0-150.5
			c0-11.2,5.3-18.6,14.9-21.5c9.8-2.9,18.6,0.6,24.9,9.8c0.4,0.6,0.8,1.1,1.4,1.8C1302.1,579,1335.9,579.4,1367.5,609.7
			L1367.5,609.7z"/>
		<path class="st2" d="M1695.2,760.4c-2,1.4-3.5,2.4-4.9,3.5c-55,44.2-133.7,15.3-147.4-54.3c-9.1-46,7.8-88.3,46-110.1
			c64.5-36.8,145.8,4.2,148.7,80.7c1,27,0.3,54.1,0.2,81.2c0,12.9-7.2,21.3-18.7,22.3c-12.1,1.1-20.7-6-23-18.8
			C1695.9,763.6,1695.6,762.3,1695.2,760.4L1695.2,760.4z M1697.1,685.8c0-26.8-13.4-48.7-35.3-57.7c-29.3-12-62.2,1.1-75.2,30
			c-14.2,31.7-1.5,69.6,27.9,83.6C1654.4,760.6,1697.1,731.7,1697.1,685.8L1697.1,685.8z"/>
		<path class="st2" d="M2590.1,700.9c2.5,12.2,7.9,21.3,15.6,29.2c21.4,21.8,56.5,24.5,83.8,6.6c10.4-6.8,19.7-7,27.3-0.5
			c9.8,8.4,9.7,20-0.7,27.5c-20.5,14.9-43.7,21.8-69,21c-42.4-1.3-77.3-25.3-90.6-62.8c-15.1-42.6-4.3-100.5,44.8-125.6
			c31-15.9,82.8-16.4,112.1,17.2c17.7,20.3,23.7,44.6,23.2,70.8c-0.2,9-7.4,15.7-16.6,16.2c-7.5,0.5-15.1,0.3-22.6,0.3
			c-32.8,0-65.5,0-98.2,0C2596.6,700.9,2594.1,700.9,2590.1,700.9L2590.1,700.9z M2696.9,666.4c-4-29.3-26.4-46.1-57.2-43.7
			c-24.8,1.9-48.6,23.4-48,43.7H2696.9L2696.9,666.4z"/>
		<path class="st2" d="M190.8,217.7c1.1-59.4,42.5-100,101-99.1c57.2,0.9,97.3,43.5,96.3,102.2c-1,58.7-42.5,97.7-102.8,96.6
			C230.6,316.4,189.8,273.4,190.8,217.7L190.8,217.7z M347.6,213.2c-0.2-16.8-7.2-35.3-26-47.7c-34.1-22.4-79.3-3.7-88.2,36.2
			c-9.9,44.1,17.5,79.4,60.3,77.9C325.2,278.5,347.6,253.1,347.6,213.2z"/>
		<path class="st2" d="M572.3,299.5c-18.4,14.5-39.3,19.2-61.9,18.1c-41.7-2-74.7-31.7-78.2-73.2c-2.1-25-1.2-50.3-1.6-75.5
			c-0.1-9.2-0.1-18.4,0-27.6c0.2-12.9,8.7-21.5,21.1-21.5c12.3,0,20.8,8.7,20.8,21.8c0.1,28.3-0.1,56.5,0.2,84.8
			c0.1,6.5,0.7,13.3,2.5,19.5c6.8,23.7,29.2,36.7,56,33.2c27.4-3.7,41.8-19.9,41.8-47.5c0-30.6,0-61.2,0.1-91.9
			c0.1-9.8,6.3-17.3,15.4-19.4c9.7-2.3,19.6,1.5,23.6,9.9c1.9,3.9,2.7,8.6,2.8,12.9c0.2,49.7,0.2,99.4,0.1,149.1
			c0,16.6-9.5,25.6-24.4,23.7C582.8,315,578.2,311,572.3,299.5L572.3,299.5z"/>
		<path class="st2" d="M2365.1,601.8c13.5-5,26.3-12.1,39.8-14.3c57.6-9.4,100.8,25.4,102.8,82.1c1.1,30.8,0.4,61.7,0.3,92.6
			c0,12.7-8.3,21.5-20.1,21.7c-12.7,0.3-21.6-8.2-21.8-21.7c-0.3-23.8,0-47.6-0.1-71.4c-0.1-9.2,0.2-18.5-1.2-27.5
			c-5-31.1-32.6-42.6-59.9-38.4c-25.8,4-39.1,20.3-39.1,46.2c0,30.4,0.1,60.8-0.1,91.2c-0.1,10.5-4.7,17.1-13.4,20.3
			c-8.3,3.1-17.7,1.3-23.1-5.8c-2.8-3.7-5-8.9-5-13.4c-0.3-51.8-0.3-103.6-0.2-155.5c0-10.3,6.4-18.1,15.6-20
			c11.1-2.3,20.2,2.3,24.8,12.5C2364.9,601.5,2365.4,602.5,2365.1,601.8L2365.1,601.8z"/>
		<path class="st2" d="M84.8,317.5c-23.5,0-45.8-4.9-66.1-17.1c-3.8-2.3-7.4-5-10.8-7.9c-9.6-8.5-10.5-19.8-2.5-28.6
			c8.9-9.8,21.5-11.3,30.7-2.5c16,15.3,35.3,19.9,56.6,18c5.3-0.5,10.7-1.9,15.7-3.8c6.9-2.6,12.3-7.1,12.9-15.2
			c0.7-8.4-3.9-14.3-10.8-17.5c-8-3.7-16.7-6.2-25.2-8.8c-15.2-4.7-31.2-7.6-45.7-14c-27.1-11.9-38-37.8-28.7-63.2
			c4.2-11.4,12.3-19.4,22.3-25.6c30.9-19,80.9-16.3,109.6,6c4.2,3.3,8.1,7.2,11.5,11.4c4.8,5.9,6.3,12.7,2.2,19.7
			c-4,6.8-10.5,10.2-17.9,8.7c-6.2-1.2-12.8-3.8-17.7-7.8c-18.8-15.3-39.5-15.8-61.3-9.1c-6.2,1.9-10.9,5.9-11,13.1
			c-0.1,7.1,3.1,12.8,9.6,15c11.7,4.1,23.8,7,35.7,10.7c12.5,3.9,25.4,7.1,37.4,12.5c19.3,8.6,31.1,23.5,31.1,45.6
			c0.1,22.2-10.3,38.7-29.4,49.7C118.2,315.2,101.7,317.6,84.8,317.5L84.8,317.5z"/>
		<path class="st2" d="M2846.2,586.1c22,0.2,42.5,5,60.1,19c4,3.2,7.6,7,10.8,11c4.6,5.8,5.9,12.4,2.2,19.1
			c-3.7,6.5-9.9,10.3-17.1,8.9c-6.4-1.2-13.5-3.5-18.4-7.5c-18.8-15.5-39.5-15.7-61.3-9.4c-5.8,1.7-10.6,5.3-11,12.3
			c-0.5,7.4,2.4,13.3,9.4,15.8c10.8,3.9,22,6.7,32.9,10.2c13.2,4.1,26.8,7.3,39.5,12.8c19,8.2,31.1,22.4,31.7,44.4
			c0.6,23.3-10,40.1-29.8,51.4c-13.2,7.6-27.8,10.2-42.8,10.6c-27.7,0.7-53.9-4.7-77-21c-7.7-5.4-14.4-11.9-12.3-22.7
			c3.2-16.6,23.2-23.8,35.7-12.4c17.8,16.2,38.5,20.9,61.5,17.2c5-0.8,10.2-2.5,14.5-5c12-6.9,12.9-20.3,1.7-28.3
			c-6-4.2-13.3-7-20.4-9.2c-17.9-5.6-36.7-9-53.9-16.2c-25.4-10.6-36.3-33.9-30-58.6c4.3-16.9,16.3-27.1,31.4-34.1
			C2817.1,588.3,2831.4,585.9,2846.2,586.1L2846.2,586.1z"/>
		<path class="st2" d="M1773.7,685.7c0.6-45,25.1-82.1,64.6-94.3c38.1-11.8,72.7-5.6,101,24.3c8.9,9.4,9.4,17.5,2,25.5
			c-8.1,8.8-18.8,9.5-28.2,1.1c-8.4-7.4-16.7-14.4-28-17c-35.3-8-66.4,14.3-69.8,50.3c-2,21.6,1.8,41.5,18.6,56.8
			c20.2,18.4,52.2,19.9,74.4,3.9c10.7-7.7,19.3-8.4,27-2c9.7,8.1,10.1,19.5,0.7,27.9c-12.4,11.1-27,17.8-43.3,20.9
			c-54.1,10.4-104.3-21.4-115.9-73.8C1775.2,701.6,1774.8,693.6,1773.7,685.7L1773.7,685.7z"/>
		<path class="st2" d="M2226.4,685.7c0-25.6-0.1-51.3,0.1-76.9c0.1-14,9.4-22.2,23.2-21.1c9.5,0.7,16.7,7.4,18.1,16.8
			c0.2,1.6,0.4,3.3,0.4,4.9c0,50.6,0.1,101.2,0,151.7c0,11.4-4.9,18.5-13.9,21.3c-14.7,4.6-27.7-4.7-27.9-20.5
			C2226.1,736.5,2226.3,711.1,2226.4,685.7L2226.4,685.7L2226.4,685.7z"/>
		<path class="st2" d="M2247,519.4c12.3-0.1,22.6,10,22.8,22.1c0.2,12.4-10.3,23-22.8,22.9c-12.2,0-22.5-10.4-22.4-22.5
			C2224.7,529.6,2234.7,519.5,2247,519.4z"/>
	</g>
	<use xlink:href="#SVGID_1_"  style="overflow:visible;fill:none;stroke:#FFFFFF;stroke-miterlimit:10;"/>
</g>
<path class="st0" d="M2969.7,1059.8c17.1,0,31.4-14.1,31.4-32.7c0-18.6-14.3-32.7-31.4-32.7c-17.1,0-31.4,14.1-31.4,32.7
	C2938.2,1045.7,2952.5,1059.8,2969.7,1059.8z M2969.7,1053.5c-14.4,0-24.6-11.9-24.6-24.6v-3.5c0-12.7,10.2-24.6,24.6-24.6
	c14.4,0,24.6,11.9,24.6,24.6v3.5C2994.3,1041.6,2984.1,1053.5,2969.7,1053.5z M2964.1,1031.6h5.6l7,12.7h7.1l-7.8-13.5
	c3.5-1.4,6.2-4.6,6.2-9.7c0-5.9-3.8-10-10.2-10h-14.3v33.2h6.4V1031.6z M2964.1,1026.5v-10.2h7.6c2.4,0,3.7,1.3,3.7,3.3v3.5
	c0,2.2-1.3,3.3-3.7,3.3H2964.1z"/>
<path class="st0" d="M39.5,1185.7v-60.9h40.4c26.6,0,41.9-17.1,41.9-43.3s-15.2-43.3-41.9-43.3H19v147.6H39.5z M39.5,1056.3h39.5
	c13.1,0,20.9,7.2,20.9,19.9v10.6c0,12.7-7.8,19.9-20.9,19.9H39.5V1056.3z M185.6,1188.3c29.8,0,49.9-22.4,49.9-57.3
	s-20.1-57.3-49.9-57.3s-49.9,22.4-49.9,57.3S155.8,1188.3,185.6,1188.3z M185.6,1171.4c-17.1,0-29-10.8-29-32.1v-16.5
	c0-21.3,11.8-32.1,29-32.1c17.1,0,29,10.8,29,32.1v16.5C214.5,1160.6,202.7,1171.4,185.6,1171.4z M279.2,1185.7H302l14.8-51.4
	l9.1-32.1h0.4l9.3,32.1l14.8,51.4h23.3l29.2-109.5h-18.4l-11.6,46.7l-10.4,45h-0.6l-12.7-45l-14-46.7h-17.5l-13.5,46.7l-12.5,45
	h-0.4l-11-45l-11.4-46.7h-19L279.2,1185.7z M467,1188.3c20.5,0,36.4-9.5,44-23.7l-12.7-10.8c-5.9,11.2-15.9,17.8-29.6,17.8
	c-19.7,0-30.9-13.1-30.9-31.3v-4.4H515v-8.2c0-30.7-17.3-53.9-48-53.9c-30.4,0-49.7,22.6-49.7,57.3
	C417.3,1165.7,436.6,1188.3,467,1188.3z M467,1089.5c16.5,0,27.1,12.3,27.1,30.4v2.1h-56.2v-1.5
	C437.8,1102.7,449.9,1089.5,467,1089.5z M561.5,1185.7v-71.9c0-10.8,10.6-18,28.8-18h9.7v-19.7h-6.6c-17.6,0-27.3,10.1-30.9,20.9
	h-1.1v-20.9h-19.7v109.5H561.5z M661.9,1188.3c20.5,0,36.4-9.5,44-23.7l-12.7-10.8c-5.9,11.2-15.9,17.8-29.6,17.8
	c-19.7,0-30.9-13.1-30.9-31.3v-4.4h77.2v-8.2c0-30.7-17.3-53.9-48-53.9c-30.4,0-49.7,22.6-49.7,57.3
	C612.2,1165.7,631.5,1188.3,661.9,1188.3z M661.9,1089.5c16.5,0,27.1,12.3,27.1,30.4v2.1h-56.2v-1.5
	C632.8,1102.7,644.8,1089.5,661.9,1089.5z M806.1,1185.7h19.7v-156.5h-19.7v64.9h-0.8c-5.1-13.5-16.5-20.5-31.5-20.5
	c-27.5,0-44,21.8-44,57.3s16.5,57.3,44,57.3c15,0,26.4-7,31.5-20.5h0.8V1185.7z M779.4,1171.2c-17.5,0-28.8-12.5-28.8-30.9v-18.6
	c0-18.4,11.2-30.9,28.8-30.9c14.8,0,26.6,8.5,26.6,20.1v40.2C806.1,1162.7,794.2,1171.2,779.4,1171.2z M910.4,1185.7H930v-18h0.8
	c5.1,13.5,16.5,20.5,31.5,20.5c27.5,0,44-21.8,44-57.3s-16.5-57.3-44-57.3c-15,0-26.4,7-31.5,20.5H930v-64.9h-19.7V1185.7z
	 M956.7,1171.2c-14.8,0-26.6-8.5-26.6-20.1v-40.2c0-11.6,11.8-20.1,26.6-20.1c17.5,0,28.8,12.5,28.8,30.9v18.6
	C985.4,1158.7,974.2,1171.2,956.7,1171.2z M1075.8,1146.2l-6.3,20.5h-1.1l-5.7-20.5l-24.3-70h-19.7l40.6,114l-7.4,21.1h-18v16.7
	h10.8c16.7,0,22-4.7,27.1-18.4l47.6-133.4h-19L1075.8,1146.2z"/>
<path class="st0" d="M2035.7,1193.9c-12.8-54.7-25.4-108.8-38-162.9c-0.4,0-0.7,0-1.1,0c-12.7,54.2-25.5,108.4-38.2,162.6h-54.8
	c-16.4-71.8-32.8-143.2-49.4-215.9c15.5,0,30-0.2,44.4,0.3c1.4,0,3.5,4,3.9,6.4c5.1,24.7,10,49.4,14.9,74.1
	c5,25.4,9.8,50.9,14.8,76.3c0.3,1.6,1,3.1,2.1,6.7c4.9-21.4,9.4-40.8,13.9-60.2c7.4-32.2,15-64.5,22.3-96.8c1.1-5,3-7.2,8.6-7
	c12.8,0.4,25.7,0.3,38.6,0c5-0.1,7.1,1.3,8.3,6.4c11.3,49.6,22.8,99.1,34.3,148.6c0.6,2.5,1.3,5,3,7.5c3.9-20.2,7.8-40.4,11.8-60.6
	c6.3-32,12.8-63.9,19.2-95.9c0.8-4,2.2-6.2,7-6.1c12.8,0.4,25.6,0.1,39.5,0.1c-3.3,14.4-6.4,27.8-9.5,41.3
	c-13,55.6-26.2,111.1-38.9,166.8c-1.5,6.7-4.2,8.8-11.1,8.5C2066.4,1193.5,2051.6,1193.9,2035.7,1193.9L2035.7,1193.9z"/>
<path class="st0" d="M1559.6,1193.1V977.7c10.8,0,21.2-0.3,31.5,0.3c2,0.1,4.3,3.3,5.6,5.6c18.7,34.4,37.2,69,55.7,103.5
	c1.2,2.2,2.6,4.4,4.5,7.7c8.7-16,16.8-30.9,24.8-45.9c11.8-21.8,23.6-43.5,35.2-65.4c2.3-4.5,5.1-6.2,10.2-6
	c8.9,0.4,17.8,0.1,27.1,0.1v215.8h-24.9v-180.2c-0.5-0.1-0.9-0.1-1.4-0.1c-23.3,42.6-46.7,85.3-71.1,129.8
	c-24.2-44.2-47.5-87-71.9-131.6V1193L1559.6,1193.1L1559.6,1193.1z"/>
<path class="st0" d="M1355.3,1193.5V978.4c1.3-0.3,2.2-0.7,3.1-0.7c31.3,0.1,62.6-0.6,93.9,0.6c40.7,1.5,64.8,47.9,43.6,82.6
	c-6.4,10.4-16.2,15.9-30,19.3c4.9,1.2,7.6,1.8,10.3,2.6c20,5.9,32.2,22,33.9,44.6c2.2,30.5-14.8,57.2-41.3,64.5
	c-3.9,1.1-8.1,2-12.1,2c-32.5,0.2-65.1,0.1-97.6,0.1C1358.1,1193.9,1357.2,1193.7,1355.3,1193.5L1355.3,1193.5z M1381.7,1170.1
	c24.7,0,48.9,1,73-0.3c17.1-1,27-13.8,27.3-30.8c0.1-3.1,0-6.2,0-9.4c0-23.7-12.2-35.9-36.2-36.1c-16.2-0.1-32.5,0-48.8,0
	c-5,0-10,0-15.3,0V1170.1z M1381.5,1070.5c23.3,0,45.8,0.7,68.3-0.3c13.4-0.6,21.8-9.8,24.1-23c0.8-4.2,0.8-8.6,0.8-12.9
	c0-22.4-10.7-33.3-33.2-33.5c-18.2-0.2-36.3,0-54.5,0c-1.8,0-3.7,0.4-5.5,0.6V1070.5L1381.5,1070.5z"/>
<path class="st0" d="M2308.8,1158.2v36.2c-11.9-0.6-23.6,0.1-34.8-2.1c-13.3-2.7-19-13.7-21.9-26c-0.7,0.1-1.5,0.1-1.6,0.3
	c-7.3,24.3-29.5,32.5-53.6,30.8c-23.3-1.7-38.8-12.9-44-32.2c-7.8-28.9,5.6-53.9,35-61.1c15.3-3.7,31.6-3.4,47.5-4.7
	c3.6-0.3,7.2,0,11.4,0c0.6-10.8,2.3-21.3-6.6-29.2c-9.6-8.5-21.4-8.4-32.3-4.4c-8.7,3.2-16.1,9.8-25.1,15.5
	c-7.5-6.5-16.3-14.3-25.5-22.3c8.4-13.6,20.1-22.5,34.9-26.9c21-6.2,42.2-6.3,63.1,0c24.4,7.3,37.8,25.6,38.1,51
	c0.2,22.3,0.1,44.7,0.1,67c0,2.6,0,5.2,0,8.3H2308.8L2308.8,1158.2z M2247.1,1124.1c-13.3,1.4-25.5,1.9-37.5,4.1
	c-8.3,1.5-11.9,8.4-12.1,16.7c-0.2,7.5,1.1,14.4,8.7,18.3c9.2,4.7,26.9,3.2,34.3-3.9c3.1-2.9,5.7-7.4,6.3-11.6
	C2247.9,1140.7,2247.1,1133.4,2247.1,1124.1z"/>
<path class="st0" d="M2682.8,1197.7c-41.5,0.2-70.8-25.5-76.1-66.4c-2.1-16.6-1.8-33,2.6-49.2c10.4-39.2,42-57.1,80.6-54.2
	c45.2,3.4,67.4,35.4,69.3,77.1c0.6,12.1-0.5,24.6-3.2,36.4C2747.8,1177.3,2720.8,1197.5,2682.8,1197.7L2682.8,1197.7z
	 M2653.5,1112.4c0.4,8.2,0.2,16.7,1.2,24.9c1.9,15,12.2,23.7,27,23.9c15.7,0.2,27.1-7.7,28.4-22.9c1.5-17.1,1.4-34.5,0-51.6
	c-1.2-14.8-12.8-23.1-27.7-23c-15.1,0.1-25.8,9.1-27.7,24.1C2653.6,1095.9,2653.8,1104.1,2653.5,1112.4L2653.5,1112.4z"/>
<path class="st0" d="M2792.6,1031.8h46.2v27.1c1.5-1.3,2.2-1.7,2.4-2.1c9.1-23,30.1-31.8,53.6-28.5c22.5,3.2,36.8,18,40.9,42.4
	c1,6.1,1.6,12.4,1.6,18.6c0.2,31.9,0.1,63.9,0.1,95.8v8.4h-46c-0.1-2.6-0.3-5.2-0.3-7.7c0-29.5,0-59.1,0-88.6c0-1.9,0.1-3.8,0-5.8
	c-0.7-24.5-20.1-34.6-41.4-21.6c-8,4.9-11,12.2-11,21.3c0.1,31.2,0,62.4,0,93.6v9.2c-14.7,0-28.5,0.1-42.2-0.2
	c-1.4-0.1-3.7-3.3-3.7-5.2c-0.4-8.4-0.2-16.8-0.2-25.2c0-40.8,0-81.6,0-122.5L2792.6,1031.8L2792.6,1031.8z"/>
<path class="st0" d="M2444.9,1168.6c9.5-8.9,18.7-17.4,28.1-26.2c10,10.3,22.7,18.8,39.2,19.2c6,0.2,12.1-0.6,17.9-2
	c6.6-1.6,9.8-6.7,9.7-13.5c-0.1-6.9-4.4-10.8-10.6-11.9c-10.5-2-21.1-3.1-31.6-4.8c-4.1-0.6-8.1-1.6-12-2.8
	c-22.8-6.9-33.4-19.7-35.6-42.8c-1.9-19.8,9-38.8,27.8-48.3c31.4-16,77.2-8.4,102.4,16.9c-9.1,8.3-18.3,16.6-26.7,24.3
	c-8.9-3.8-19.2-9.1-30-12.5c-5.4-1.7-12-0.5-17.9,0.5c-6.6,1.1-10.9,5.3-11,12.4c-0.1,7.3,3.8,12,10.8,13.4
	c11.6,2.3,23.4,3.8,35.1,5.8c4.3,0.8,8.5,2.1,12.6,3.5c40.7,14.1,38.4,61.8,13.4,81.5c-14.3,11.3-30.8,15.7-48.7,16.3
	C2489.4,1198.5,2464.5,1191,2444.9,1168.6L2444.9,1168.6z"/>
<path class="st0" d="M2351.6,987.6h41.6v43.6h32.3v35.9h-31.4v91.2h28.7v36.5c-14.9-0.9-29.8-0.4-44.1-3
	c-19.2-3.4-30.6-18.1-31.1-38.2c-0.7-25.7-0.4-51.4-0.6-77.1c0-2.8,0-5.6,0-9.2h-22.3v-36c2.3,0,4.9,0,7.4,0
	c15.5-0.1,19.6-4.2,19.6-19.8C2351.7,1003.6,2351.7,995.8,2351.6,987.6L2351.6,987.6z"/>
<path class="st0" d="M1306.9,999.6h-30V1172h29.5v21.4h-87.1v-21.2c8,0,16.2-0.2,24.3,0.1c4.6,0.2,6.4-1.2,6.4-6.1
	c-0.1-54-0.1-108-0.1-162c0-1.2-0.2-2.3-0.4-4.2h-30.7c0-6.6-0.3-12.6,0.2-18.4c0.1-1.4,2.9-3.7,4.5-3.7c26.2-0.2,52.4-0.2,78.6,0
	c1.6,0,4.3,2.7,4.5,4.4C1307.3,987.7,1306.9,993.2,1306.9,999.6L1306.9,999.6z"/>
</svg>
