<svg width="2281" height="1104" viewBox="0 0 2281 1104" fill="none" xmlns="http://www.w3.org/2000/svg">
<path d="M30.702 843.712V796.428H62.0608C82.7477 796.428 94.5689 783.129 94.5689 762.77C94.5689 742.412 82.7477 729.113 62.0608 729.113H14.7764V843.712H30.702ZM30.702 743.233H61.4041C71.5834 743.233 77.6581 748.815 77.6581 758.666V766.875C77.6581 776.726 71.5834 782.308 61.4041 782.308H30.702V743.233ZM144.099 845.682C167.249 845.682 182.846 828.279 182.846 801.189C182.846 774.099 167.249 756.696 144.099 756.696C120.95 756.696 105.352 774.099 105.352 801.189C105.352 828.279 120.95 845.682 144.099 845.682ZM144.099 832.548C130.8 832.548 121.606 824.174 121.606 807.592V794.786C121.606 778.204 130.8 769.83 144.099 769.83C157.398 769.83 166.592 778.204 166.592 794.786V807.592C166.592 824.174 157.398 832.548 144.099 832.548ZM216.777 843.712H234.508L246.001 803.816L253.061 778.86H253.389L260.613 803.816L272.106 843.712H290.166L312.823 758.666H298.539L289.509 794.95L281.464 829.921H280.972L271.121 794.95L260.285 758.666H246.658L236.15 794.95L226.463 829.921H226.135L217.598 794.95L208.732 758.666H193.955L216.777 843.712ZM362.631 845.682C378.556 845.682 390.87 838.294 396.781 827.294L386.93 818.921C382.332 827.622 374.616 832.712 363.944 832.712C348.675 832.712 339.974 822.533 339.974 808.413V804.965H399.9V798.562C399.9 774.756 386.437 756.696 362.631 756.696C338.988 756.696 324.048 774.263 324.048 801.189C324.048 828.115 338.988 845.682 362.631 845.682ZM362.631 769.009C375.437 769.009 383.646 778.532 383.646 792.652V794.293H339.974V793.144C339.974 779.189 349.332 769.009 362.631 769.009ZM435.98 843.712V787.89C435.98 779.517 444.189 773.935 458.309 773.935H465.861V758.666H460.772C447.145 758.666 439.592 766.547 436.801 774.92H435.98V758.666H420.711V843.712H435.98ZM513.986 845.682C529.912 845.682 542.225 838.294 548.136 827.294L538.285 818.921C533.688 827.622 525.971 832.712 515.299 832.712C500.03 832.712 491.329 822.533 491.329 808.413V804.965H551.255V798.562C551.255 774.756 537.792 756.696 513.986 756.696C490.344 756.696 475.403 774.263 475.403 801.189C475.403 828.115 490.344 845.682 513.986 845.682ZM513.986 769.009C526.792 769.009 535.001 778.532 535.001 792.652V794.293H491.329V793.144C491.329 779.189 500.687 769.009 513.986 769.009ZM625.918 843.712H641.187V722.217H625.918V772.621H625.262C621.321 762.114 612.455 756.696 600.798 756.696C579.455 756.696 566.649 773.606 566.649 801.189C566.649 828.772 579.455 845.682 600.798 845.682C612.455 845.682 621.321 840.264 625.262 829.757H625.918V843.712ZM605.231 832.384C591.604 832.384 582.903 822.697 582.903 808.413V793.965C582.903 779.681 591.604 769.994 605.231 769.994C616.724 769.994 625.918 776.562 625.918 785.592V816.786C625.918 825.816 616.724 832.384 605.231 832.384ZM706.908 843.712H722.176V829.757H722.833C726.774 840.264 735.639 845.682 747.296 845.682C768.64 845.682 781.446 828.772 781.446 801.189C781.446 773.606 768.64 756.696 747.296 756.696C735.639 756.696 726.774 762.114 722.833 772.621H722.176V722.217H706.908V843.712ZM742.863 832.384C731.371 832.384 722.176 825.816 722.176 816.786V785.592C722.176 776.562 731.371 769.994 742.863 769.994C756.49 769.994 765.192 779.681 765.192 793.965V808.413C765.192 822.697 756.49 832.384 742.863 832.384ZM835.315 813.01L830.389 828.936H829.568L825.135 813.01L806.254 758.666H790.985L822.508 847.16L816.762 863.578H802.806V876.549H811.18C824.15 876.549 828.255 872.937 832.195 862.265L869.136 758.666H854.36L835.315 813.01Z" fill="black"/>
<path d="M2252.4 743.444C2265.28 743.444 2276.02 732.825 2276.02 718.866C2276.02 704.906 2265.28 694.287 2252.4 694.287C2239.51 694.287 2228.77 704.906 2228.77 718.866C2228.77 732.825 2239.51 743.444 2252.4 743.444ZM2252.4 738.672C2241.54 738.672 2233.9 729.723 2233.9 720.178V717.553C2233.9 708.008 2241.54 699.06 2252.4 699.06C2263.25 699.06 2270.89 708.008 2270.89 717.553V720.178C2270.89 729.723 2263.25 738.672 2252.4 738.672ZM2248.22 722.207H2252.4L2257.65 731.752H2263.02L2257.17 721.61C2259.79 720.536 2261.82 718.15 2261.82 714.332C2261.82 709.917 2258.96 706.815 2254.19 706.815H2243.45V731.752H2248.22V722.207ZM2248.22 718.389V710.752H2253.95C2255.74 710.752 2256.69 711.707 2256.69 713.258V715.883C2256.69 717.553 2255.74 718.389 2253.95 718.389H2248.22Z" fill="black"/>
<path d="M2238.85 450.824V430.621H2246.53V426.736H2226.76V430.621H2234.53V450.824H2238.85ZM2255.08 450.824V439.946L2254.91 432.78H2255.25L2262.42 446.162L2269.5 432.78H2269.85L2269.76 439.946V450.824H2273.73V426.736H2268.55L2262.68 438.219H2262.42L2256.46 426.736H2251.02V450.824H2255.08Z" fill="black"/>
<path d="M1534.92 846.944C1525.3 805.369 1515.77 764.221 1506.24 723.063C1505.97 723.063 1505.7 723.041 1505.43 723.03C1495.82 764.243 1486.23 805.456 1476.62 846.659H1435.31C1422.93 792.103 1410.6 737.746 1398.09 682.532C1409.75 682.532 1420.67 682.389 1431.58 682.751C1432.66 682.784 1434.19 685.785 1434.56 687.609C1438.41 706.358 1442.1 725.14 1445.76 743.934C1449.52 763.265 1453.18 782.619 1456.91 801.962C1457.14 803.171 1457.63 804.324 1458.48 807.028C1462.2 790.785 1465.59 776.025 1468.97 761.265C1474.59 736.746 1480.27 712.238 1485.75 687.686C1486.6 683.883 1487.99 682.224 1492.21 682.367C1501.89 682.697 1511.6 682.62 1521.3 682.4C1525.07 682.312 1526.65 683.4 1527.53 687.29C1536.02 724.987 1544.76 762.639 1553.43 800.291C1553.87 802.214 1554.39 804.116 1555.68 805.995C1558.65 790.631 1561.55 775.245 1564.59 759.891C1569.38 735.581 1574.27 711.282 1579.07 686.972C1579.67 683.96 1580.71 682.268 1584.36 682.367C1594.01 682.642 1603.68 682.455 1614.11 682.455C1611.61 693.379 1609.31 703.6 1606.93 713.821C1597.12 756.078 1587.2 798.313 1577.59 840.625C1576.43 845.724 1574.4 847.274 1569.21 847.076C1558.08 846.637 1546.91 846.944 1534.92 846.944V846.944Z" fill="black"/>
<path d="M1175.96 846.274V682.51C1184.09 682.51 1191.91 682.279 1199.7 682.707C1201.2 682.784 1202.98 685.224 1203.91 686.961C1217.99 713.15 1231.94 739.406 1245.94 765.639C1246.85 767.343 1247.86 768.98 1249.32 771.519C1255.87 759.331 1261.97 748 1268.05 736.647C1276.92 720.085 1285.87 703.567 1294.56 686.906C1296.33 683.521 1298.42 682.213 1302.22 682.378C1308.92 682.675 1315.64 682.455 1322.66 682.455V846.538H1303.89V709.523C1303.54 709.49 1303.19 709.468 1302.83 709.436C1285.23 741.856 1267.61 774.277 1249.25 808.105C1231.04 774.464 1213.43 741.955 1195.07 708.029V846.263H1175.98L1175.96 846.274Z" fill="black"/>
<path d="M1021.9 846.593V683.059C1022.86 682.839 1023.55 682.543 1024.22 682.543C1047.83 682.62 1071.45 682.103 1095.02 682.993C1125.74 684.158 1143.91 719.437 1127.93 745.769C1123.12 753.682 1115.69 757.869 1105.32 760.419C1108.98 761.331 1111.05 761.76 1113.06 762.364C1128.15 766.859 1137.34 779.08 1138.6 796.28C1140.29 819.436 1127.44 839.768 1107.45 845.362C1104.48 846.197 1101.35 846.845 1098.3 846.867C1073.78 846.988 1049.25 846.922 1024.73 846.911C1024.01 846.911 1023.31 846.757 1021.9 846.593V846.593ZM1041.8 828.854C1060.39 828.854 1078.66 829.635 1096.82 828.591C1109.74 827.843 1117.17 818.128 1117.43 805.171C1117.47 802.797 1117.43 800.423 1117.43 798.049C1117.43 780.025 1108.23 770.739 1090.11 770.618C1077.86 770.53 1065.59 770.596 1053.34 770.596C1049.56 770.596 1045.77 770.596 1041.8 770.596V828.854ZM1041.66 753.077C1059.26 753.077 1076.23 753.638 1093.14 752.869C1103.23 752.407 1109.58 745.406 1111.33 735.405C1111.89 732.207 1111.91 728.888 1111.91 725.624C1111.92 708.589 1103.85 700.303 1086.91 700.138C1073.22 700.006 1059.51 700.094 1045.81 700.138C1044.43 700.138 1043.05 700.446 1041.66 700.61V753.099V753.077Z" fill="black"/>
<path d="M1740.81 819.777V847.307C1731.85 846.856 1722.98 847.406 1714.57 845.713C1704.52 843.68 1700.22 835.273 1698.03 825.931C1697.48 826.019 1696.91 825.997 1696.86 826.129C1691.34 844.581 1674.59 850.868 1656.42 849.56C1638.83 848.296 1627.18 839.735 1623.24 825.052C1617.35 803.061 1627.46 784.037 1649.65 778.597C1661.2 775.772 1673.52 776.047 1685.49 775.014C1688.18 774.783 1690.92 774.981 1694.12 774.981C1694.55 766.804 1695.83 758.781 1689.12 752.781C1681.92 746.34 1672.95 746.373 1664.8 749.407C1658.23 751.847 1652.63 756.847 1645.9 761.166C1640.28 756.21 1633.62 750.319 1626.66 744.186C1633.02 733.856 1641.8 727.108 1653 723.745C1668.81 718.997 1684.83 718.986 1700.59 723.745C1719 729.306 1729.12 743.23 1729.31 762.54C1729.47 779.52 1729.34 796.499 1729.34 813.49C1729.34 815.447 1729.34 817.414 1729.34 819.777H1740.78H1740.81ZM1694.31 793.807C1684.3 794.851 1675.06 795.247 1666.06 796.928C1659.78 798.093 1657.09 803.357 1656.93 809.611C1656.78 815.304 1657.79 820.557 1663.51 823.524C1670.42 827.118 1683.81 825.931 1689.39 820.579C1691.71 818.359 1693.66 814.919 1694.11 811.787C1694.88 806.468 1694.31 800.95 1694.31 793.807Z" fill="black"/>
<path d="M2022.84 849.802C1991.59 849.956 1969.44 830.404 1965.51 799.291C1963.91 786.674 1964.18 774.201 1967.43 761.848C1975.29 732.064 1999.09 718.447 2028.24 720.646C2062.34 723.228 2079.05 747.527 2080.49 779.3C2080.9 788.488 2080.13 798.016 2078.09 806.973C2071.86 834.273 2051.47 849.659 2022.83 849.802H2022.84ZM2000.71 784.971C2000.98 791.224 2000.85 797.643 2001.64 803.94C2003.08 815.315 2010.81 821.931 2021.98 822.096C2033.8 822.271 2042.37 816.249 2043.36 804.698C2044.47 791.708 2044.45 778.487 2043.36 765.496C2042.43 754.209 2033.75 747.89 2022.51 747.989C2011.09 748.088 2003.03 754.913 2001.61 766.299C2000.85 772.42 2000.97 778.652 2000.69 784.971H2000.71Z" fill="black"/>
<path d="M2105.64 723.657H2140.49V744.241C2141.65 743.219 2142.13 742.988 2142.27 742.626C2149.14 725.151 2164.97 718.425 2182.7 720.942C2199.65 723.349 2210.47 734.592 2213.56 753.165C2214.32 757.825 2214.76 762.584 2214.79 767.299C2214.91 791.576 2214.84 815.864 2214.84 840.152V846.538H2180.18C2180.09 844.559 2179.93 842.614 2179.93 840.68C2179.9 818.227 2179.91 795.763 2179.91 773.31C2179.91 771.849 2179.95 770.387 2179.9 768.925C2179.35 750.308 2164.75 742.604 2148.71 752.473C2142.66 756.199 2140.42 761.782 2140.44 768.694C2140.51 792.433 2140.47 816.161 2140.47 839.9V846.922C2129.37 846.922 2118.99 847.032 2108.61 846.746C2107.59 846.713 2105.86 844.23 2105.8 842.812C2105.49 836.438 2105.65 830.041 2105.65 823.645C2105.65 792.609 2105.65 761.573 2105.65 730.526V723.657H2105.64Z" fill="black"/>
<path d="M1843.45 827.712C1850.63 820.964 1857.53 814.479 1864.62 807.808C1872.15 815.666 1881.75 822.085 1894.17 822.447C1898.67 822.579 1903.3 822.008 1907.67 820.931C1912.68 819.7 1915.06 815.842 1914.96 810.655C1914.85 805.435 1911.66 802.478 1906.97 801.588C1899.08 800.082 1891.07 799.203 1883.14 797.917C1880.08 797.423 1877.05 796.664 1874.08 795.763C1856.87 790.532 1848.87 780.795 1847.2 763.21C1845.77 748.165 1854.02 733.691 1868.15 726.459C1891.84 714.326 1926.36 720.063 1945.38 739.34C1938.49 745.659 1931.59 752 1925.24 757.836C1918.52 754.935 1910.79 750.912 1902.61 748.341C1898.53 747.055 1893.56 747.956 1889.13 748.703C1884.18 749.539 1880.94 752.737 1880.83 758.122C1880.72 763.683 1883.69 767.255 1888.95 768.288C1897.73 770.013 1906.62 771.145 1915.43 772.728C1918.65 773.31 1921.82 774.288 1924.91 775.365C1955.59 786.081 1953.9 822.37 1935.05 837.317C1924.25 845.889 1911.8 849.23 1898.32 849.703C1876.98 850.439 1858.22 844.68 1843.43 827.723L1843.45 827.712Z" fill="black"/>
<path d="M1773.15 690.027H1804.5V723.14H1828.83V750.418H1805.14V819.766H1826.76V847.538C1815.5 846.845 1804.27 847.197 1793.48 845.23C1779.03 842.614 1770.42 831.437 1770.03 816.194C1769.51 796.675 1769.69 777.135 1769.56 757.605C1769.55 755.451 1769.56 753.308 1769.56 750.638H1752.78V723.294C1754.52 723.294 1756.44 723.294 1758.35 723.294C1770.07 723.239 1773.16 720.107 1773.17 708.227C1773.17 702.248 1773.17 696.28 1773.17 690.005L1773.15 690.027Z" fill="black"/>
<path d="M985.417 699.182H962.832V830.283H985.098V846.56H919.432V830.404C925.499 830.404 931.62 830.25 937.731 830.459C941.204 830.58 942.566 829.547 942.556 825.854C942.446 784.784 942.479 743.714 942.468 702.644C942.468 701.753 942.303 700.863 942.171 699.435H919.026C919.026 694.39 918.806 689.884 919.19 685.422C919.278 684.345 921.388 682.609 922.586 682.598C942.347 682.422 962.107 682.411 981.856 682.62C983.054 682.631 985.12 684.708 985.252 685.983C985.692 690.104 985.417 694.302 985.417 699.182V699.182Z" fill="black"/>
<path d="M1041.8 828.855V770.596C1045.77 770.596 1049.56 770.596 1053.34 770.596C1065.59 770.596 1077.86 770.53 1090.11 770.618C1108.23 770.739 1117.42 780.025 1117.43 798.049C1117.43 800.423 1117.46 802.797 1117.43 805.171C1117.18 818.128 1109.74 827.854 1096.82 828.591C1078.66 829.635 1060.39 828.855 1041.8 828.855V828.855Z" fill="white"/>
<path d="M1694.31 793.807C1694.31 800.951 1694.86 806.468 1694.11 811.787C1693.66 814.908 1691.71 818.348 1689.39 820.579C1683.81 825.931 1670.42 827.118 1663.51 823.524C1657.79 820.557 1656.78 815.315 1656.93 809.611C1657.09 803.357 1659.78 798.093 1666.06 796.928C1675.07 795.247 1684.31 794.84 1694.31 793.807Z" fill="white"/>
<path d="M2000.71 784.971C2000.99 778.652 2000.87 772.42 2001.63 766.299C2003.05 754.913 2011.12 748.099 2022.54 747.989C2033.77 747.89 2042.44 754.209 2043.38 765.496C2044.46 778.487 2044.49 791.708 2043.38 804.698C2042.39 816.249 2033.82 822.282 2022 822.096C2010.82 821.931 2003.1 815.304 2001.67 803.94C2000.86 797.643 2001.01 791.224 2000.73 784.971H2000.71Z" fill="white"/>
<g clip-path="url(#clip0_11_61)">
<path d="M1546.69 454.993C1564.56 441.947 1583.15 438.497 1603.02 442.258C1631.99 447.729 1652.22 469.276 1653.87 498.797C1655.4 525.943 1654.85 553.218 1654.76 580.429C1654.72 590.036 1647.67 596.13 1638.45 595.99C1629.46 595.861 1623.13 589.37 1623.06 579.59C1622.91 558.097 1623.02 536.604 1622.98 515.11C1622.98 511.532 1622.84 507.942 1622.52 504.385C1621.18 489.404 1614.53 477.851 1599.8 472.876C1584.09 467.567 1569.01 468.953 1556 480.377C1549.77 485.847 1546.68 492.865 1546.69 501.269C1546.75 527.061 1546.71 552.853 1546.67 578.645C1546.65 587.167 1543.02 592.809 1536.3 595.119C1525.34 598.881 1514.82 591.562 1514.79 579.891C1514.69 552.67 1514.75 525.438 1514.75 498.216C1514.75 460.066 1514.82 421.926 1514.72 383.775C1514.68 367.311 1510.08 352.631 1496.65 341.938C1487.34 334.534 1476.36 331.568 1464.73 330.633C1460.81 330.321 1456.85 330.342 1452.92 330.342C1284.57 330.332 1116.21 330.375 947.863 330.224C939.17 330.224 930.132 329.762 921.858 327.387C893.445 319.22 878.465 298.479 872.329 270.677C870.652 263.068 870.126 255.062 870.104 247.238C869.922 187.411 870.029 127.595 869.975 67.7686C869.954 46.8985 854.211 31.2621 834.073 31.8532C816.266 32.3798 801.436 47.178 800.91 64.9745C800.835 67.6611 800.867 70.3478 800.867 73.0345C800.867 223.843 800.867 374.651 800.856 525.459C800.856 559.01 780.546 585.727 749.629 593.045C708.031 602.889 668.045 571.939 667.916 529.21C667.669 446.46 667.883 363.711 667.711 280.961C667.701 274.804 667.088 268.291 665.025 262.563C659.964 248.485 647.262 240.5 631.433 240.457C607.791 240.393 584.15 240.575 560.508 240.511C542.336 240.457 526.711 234.751 515.89 219.254C510.216 211.129 507.218 201.909 506.842 192.097C506.369 179.577 506.498 167.036 506.498 154.494C506.498 109.541 506.498 64.5769 506.573 19.6235C506.595 7.35074 515.03 0.279417 526.368 2.80489C532.804 4.24494 536.748 8.30719 537.995 14.6907C538.575 17.6461 538.554 20.7411 538.564 23.7824C538.597 75.7212 538.586 127.671 538.597 179.609C538.597 182.113 538.597 184.628 538.736 187.132C539.456 200.179 547.774 208.4 560.852 208.507C584.311 208.69 607.78 208.529 631.239 208.701C658.029 208.894 678.329 220.511 691.632 243.885C697.435 254.073 699.681 265.25 699.681 276.888C699.703 359.821 699.767 442.742 699.638 525.674C699.617 537.721 703.099 548.006 712.695 555.453C723.645 563.943 735.874 565.63 748.555 559.784C761.654 553.745 768.123 542.976 768.865 528.726C769.101 524.084 768.919 519.42 768.919 514.756C768.919 365.559 768.908 216.363 768.94 67.1668C768.94 35.8187 789.863 8.94125 819.544 1.89142C861.798 -8.14599 901.623 23.0731 901.902 66.8874C902.192 112.561 901.967 158.234 901.967 203.908C901.967 219.673 901.257 235.481 902.257 251.172C902.837 260.242 904.976 269.677 908.597 277.995C914.357 291.203 925.694 297.769 940.18 298.436C943.758 298.597 947.348 298.489 950.926 298.489C1118.92 298.489 1286.91 298.511 1454.91 298.457C1471.23 298.457 1487.03 300.692 1501.84 307.925C1528 320.703 1543.04 342.11 1545.35 370.632C1547.42 396.263 1546.36 422.151 1546.68 447.933C1546.7 449.835 1546.68 451.726 1546.68 455.004L1546.69 454.993Z" fill="black"/>
<path d="M1039.8 463.558C1040.82 462.72 1042.04 461.731 1043.24 460.711C1060.5 445.816 1080.51 442.194 1102.05 447.707C1122.63 452.973 1136.78 470.694 1138.25 493.413C1139.42 511.424 1139.07 529.543 1139.27 547.619C1139.39 558.366 1139.42 569.112 1139.24 579.848C1139.1 587.618 1135.17 593.045 1128.75 595.119C1121.92 597.333 1114.69 595.753 1110.9 590.133C1108.86 587.092 1107.58 582.922 1107.53 579.246C1107.23 555.432 1107.4 531.617 1107.34 507.802C1107.34 504.417 1107.1 501 1106.62 497.647C1104.5 482.849 1095.53 474.821 1081.05 474.595C1066.76 474.38 1054.96 483.622 1052.47 497.206C1051.79 500.882 1051.47 504.664 1051.46 508.404C1051.36 532.402 1051.46 556.388 1051.37 580.386C1051.35 587.683 1047.47 592.938 1041.02 595.119C1034.31 597.387 1026.93 595.839 1023.22 590.122C1021.02 586.748 1019.68 582.202 1019.63 578.15C1019.29 555.056 1019.46 531.961 1019.46 508.856C1019.46 506.352 1019.49 503.837 1019.39 501.333C1018.81 485.654 1009.99 475.82 995.512 474.649C980.263 473.424 967.249 482.935 964.423 497.561C963.778 500.871 963.499 504.31 963.488 507.695C963.402 531.864 963.424 556.044 963.435 580.214C963.435 586.758 960.598 591.691 954.719 594.453C948.745 597.269 942.813 596.613 937.504 592.583C932.819 589.026 931.486 583.921 931.486 578.301C931.486 540.161 931.465 502.021 931.508 463.881C931.519 455.359 935.538 449.749 942.813 447.567C950.238 445.343 956.965 447.986 961.747 455.015C962.048 455.455 962.381 455.853 962.811 456.412C990.042 440.217 1015.77 440.507 1039.78 463.558H1039.8Z" fill="black"/>
<path d="M1288.92 578.139C1287.43 579.203 1286.26 579.956 1285.17 580.826C1243.37 614.463 1183.54 592.443 1173.07 539.57C1166.14 504.557 1179 472.414 1208.03 455.842C1257.06 427.847 1318.9 459.013 1321.1 517.227C1321.87 537.775 1321.32 558.376 1321.29 578.956C1321.28 588.789 1315.85 595.141 1307.07 595.925C1297.9 596.742 1291.33 591.369 1289.61 581.643C1289.43 580.622 1289.21 579.601 1288.92 578.15V578.139ZM1290.41 521.472C1290.41 501.107 1280.21 484.45 1263.54 477.615C1241.25 468.47 1216.22 478.453 1206.4 500.409C1195.63 524.524 1205.25 553.358 1227.64 563.975C1257.93 578.344 1290.41 556.356 1290.41 521.472V521.472Z" fill="black"/>
<path d="M1969.33 532.96C1971.25 542.246 1975.36 549.188 1981.21 555.142C1997.52 571.692 2024.18 573.755 2044.96 560.16C2052.9 554.959 2059.96 554.841 2065.72 559.816C2073.13 566.211 2073.08 575.002 2065.17 580.751C2049.58 592.089 2031.96 597.344 2012.74 596.742C1980.54 595.721 1953.97 577.527 1943.84 548.995C1932.33 516.626 1940.59 472.607 1977.91 453.51C2001.5 441.442 2040.89 441.012 2063.13 466.6C2076.55 482.043 2081.13 500.473 2080.73 520.398C2080.59 527.211 2075.11 532.305 2068.12 532.724C2062.4 533.068 2056.66 532.939 2050.93 532.95C2026.03 532.971 2001.15 532.95 1976.25 532.96C1974.3 532.96 1972.37 532.96 1969.34 532.96H1969.33ZM2050.6 506.717C2047.55 484.439 2030.52 471.694 2007.12 473.499C1988.27 474.95 1970.18 491.285 1970.63 506.717H2050.59H2050.6Z" fill="black"/>
<path d="M145.094 165.553C145.911 120.395 177.387 89.5092 221.865 90.197C265.344 90.874 295.852 123.243 295.11 167.885C294.369 212.505 262.765 242.198 216.943 241.338C175.323 240.554 144.331 207.862 145.094 165.553V165.553ZM264.301 162.135C264.183 149.368 258.81 135.258 244.528 125.865C218.609 108.81 184.21 123.017 177.429 153.366C169.929 186.896 190.733 213.773 223.294 212.612C247.301 211.763 264.269 192.43 264.301 162.135Z" fill="black"/>
<path d="M435.154 227.722C421.131 238.781 405.28 242.327 388.054 241.51C356.385 240.017 331.271 217.395 328.563 185.832C326.93 166.799 327.628 147.563 327.349 128.412C327.242 121.427 327.263 114.441 327.37 107.456C327.521 97.6122 333.99 91.1104 343.425 91.1319C352.764 91.1534 359.233 97.7519 359.276 107.693C359.372 129.186 359.19 150.679 359.394 172.173C359.437 177.127 359.963 182.253 361.328 187.003C366.476 205.015 383.551 214.934 403.926 212.215C424.795 209.431 435.67 197.084 435.692 176.095C435.724 152.807 435.67 129.53 435.799 106.242C435.842 98.805 440.603 93.0878 447.491 91.4758C454.83 89.7563 462.363 92.6149 465.405 98.9662C466.812 101.911 467.489 105.489 467.5 108.789C467.64 146.574 467.651 184.37 467.554 222.166C467.522 234.826 460.343 241.618 449.006 240.221C443.139 239.501 439.635 236.449 435.144 227.722H435.154Z" fill="black"/>
<path d="M1798.26 457.583C1808.55 453.768 1818.23 448.363 1828.5 446.686C1872.3 439.507 1905.16 466.009 1906.68 509.092C1907.5 532.531 1906.96 556.012 1906.9 579.472C1906.88 589.166 1900.58 595.807 1891.64 595.99C1881.96 596.183 1875.2 589.724 1875.09 579.515C1874.89 561.428 1875.09 543.331 1874.99 525.244C1874.94 518.28 1875.16 511.198 1874.06 504.364C1870.27 480.71 1849.31 471.941 1828.51 475.197C1808.92 478.26 1798.79 490.64 1798.79 510.296C1798.79 533.401 1798.85 556.506 1798.74 579.612C1798.71 587.564 1795.18 592.615 1788.56 595.066C1782.25 597.398 1775.11 596.022 1771.02 590.649C1768.89 587.855 1767.2 583.9 1767.18 580.461C1766.92 541.063 1766.97 501.655 1767.06 462.258C1767.08 454.391 1771.95 448.492 1778.93 447.041C1787.34 445.289 1794.33 448.814 1797.8 456.562C1798.15 457.347 1798.5 458.121 1798.26 457.594V457.583Z" fill="black"/>
<path d="M64.4553 241.435C46.5845 241.403 29.6378 237.738 14.1956 228.41C11.3049 226.658 8.53238 224.617 6.00704 222.37C-1.28959 215.879 -1.95585 207.293 4.11572 200.619C10.918 193.139 20.4928 192.043 27.4456 198.685C39.6425 210.334 54.268 213.848 70.4624 212.398C74.5029 212.032 78.5757 210.936 82.3906 209.507C87.6455 207.54 91.7398 204.112 92.2341 197.943C92.7499 191.56 89.2896 187.078 84.0455 184.639C77.9417 181.802 71.3651 179.921 64.9066 177.911C53.333 174.322 41.1792 172.108 30.1751 167.261C9.55326 158.181 1.26799 138.525 8.31746 119.202C11.4768 110.53 17.6559 104.426 25.2749 99.7508C48.7659 85.3072 86.7858 87.3706 108.6 104.275C111.824 106.768 114.736 109.777 117.326 112.937C121.012 117.429 122.119 122.577 118.992 127.886C115.972 133.033 111.018 135.634 105.409 134.527C100.702 133.592 95.6728 131.625 91.9869 128.627C77.6731 116.978 61.9514 116.645 45.3809 121.674C40.6741 123.103 37.1171 126.177 37.0097 131.647C36.9022 137.01 39.3738 141.351 44.3385 143.071C53.2578 146.155 62.4673 148.401 71.4833 151.217C81.0151 154.183 90.8048 156.644 99.8853 160.695C114.565 167.229 123.505 178.567 123.538 195.332C123.581 212.226 115.682 224.735 101.196 233.096C89.8484 239.64 77.3614 241.467 64.4768 241.424L64.4553 241.435Z" fill="black"/>
<path d="M2164.12 445.644C2180.82 445.816 2196.46 449.459 2209.79 460.119C2212.83 462.559 2215.59 465.471 2218.04 468.513C2221.56 472.887 2222.54 477.927 2219.67 483.021C2216.88 487.986 2212.17 490.823 2206.7 489.813C2201.81 488.91 2196.44 487.18 2192.69 484.085C2178.38 472.295 2162.63 472.166 2146.07 476.97C2141.64 478.26 2138.02 480.99 2137.69 486.32C2137.34 491.962 2139.54 496.454 2144.8 498.335C2153.01 501.279 2161.5 503.461 2169.84 506.062C2179.89 509.2 2190.25 511.639 2199.85 515.809C2214.29 522.074 2223.54 532.853 2223.97 549.553C2224.43 567.264 2216.35 580.031 2201.28 588.671C2191.24 594.432 2180.17 596.42 2168.78 596.731C2147.69 597.301 2127.81 593.12 2110.26 580.751C2104.4 576.614 2099.28 571.735 2100.88 563.503C2103.33 550.907 2118.49 545.405 2128 554.078C2141.53 566.426 2157.25 570.004 2174.78 567.146C2178.59 566.522 2182.51 565.233 2185.83 563.309C2194.92 558.043 2195.66 547.877 2187.1 541.827C2182.54 538.613 2177 536.518 2171.61 534.82C2158 530.532 2143.73 527.974 2130.64 522.504C2111.32 514.412 2103.06 496.755 2107.83 477.97C2111.11 465.095 2120.2 457.358 2131.71 452.059C2141.95 447.342 2152.85 445.504 2164.1 445.633L2164.12 445.644Z" fill="black"/>
<path d="M1348.63 521.365C1349.11 487.158 1367.7 458.959 1397.74 449.674C1426.68 440.722 1452.99 445.407 1474.57 468.147C1481.34 475.272 1481.71 481.484 1476.11 487.566C1469.95 494.251 1461.85 494.81 1454.67 488.405C1448.32 482.741 1441.95 477.443 1433.38 475.498C1406.53 469.405 1382.91 486.352 1380.34 513.767C1378.81 530.156 1381.67 545.287 1394.49 556.936C1409.86 570.907 1434.19 572.068 1451.05 559.892C1459.2 554.013 1465.75 553.54 1471.6 558.398C1478.99 564.556 1479.3 573.239 1472.12 579.633C1462.68 588.037 1451.61 593.142 1439.19 595.517C1398.04 603.394 1359.89 579.236 1351.05 539.387C1349.74 533.487 1349.43 527.372 1348.65 521.365H1348.63Z" fill="black"/>
<path d="M1692.82 521.354C1692.82 501.86 1692.7 482.354 1692.86 462.86C1692.95 452.178 1700 445.988 1710.52 446.794C1717.71 447.342 1723.18 452.403 1724.29 459.582C1724.49 460.818 1724.59 462.075 1724.59 463.322C1724.62 501.784 1724.65 540.236 1724.58 578.698C1724.57 587.339 1720.84 592.798 1714.02 594.915C1702.82 598.397 1692.96 591.315 1692.83 579.311C1692.64 559.999 1692.78 540.677 1692.78 521.354H1692.82V521.354Z" fill="black"/>
<path d="M1708.51 394.941C1717.84 394.876 1725.7 402.506 1725.88 411.781C1726.07 421.184 1718.06 429.233 1708.54 429.212C1699.29 429.19 1691.46 421.324 1691.51 412.082C1691.56 402.646 1699.14 395.005 1708.51 394.941Z" fill="black"/>
</g>
<path d="M1071.66 952.51V904.75C1072.93 904.6 1074.18 904.33 1075.43 904.32C1087.9 904.29 1100.36 904.2 1112.83 904.32C1128.24 904.47 1135.59 912.02 1135.58 927.51C1135.58 930.48 1135.56 933.5 1135.05 936.41C1133.46 945.51 1127.68 951.88 1118.5 952.3C1103.12 953 1087.68 952.49 1071.66 952.49V952.51Z" fill="white"/>
<defs>
<clipPath id="clip0_11_61">
<rect width="2224" height="597" fill="white"/>
</clipPath>
</defs>
</svg>
