<?xml version="1.0" encoding="utf-8"?>
<!-- Generator: Adobe Illustrator 25.0.0, SVG Export Plug-In . SVG Version: 6.00 Build 0)  -->
<svg version="1.1" xmlns="http://www.w3.org/2000/svg" xmlns:xlink="http://www.w3.org/1999/xlink" x="0px" y="0px"
	 viewBox="0 0 70 50" style="enable-background:new 0 0 70 50;" xml:space="preserve">
<style type="text/css">
	.st0{display:none;}
	.st1{display:inline;}
	.st2{fill:#005EB8;}
	.st3{fill:#FFFFFF;}
	.st4{display:inline;fill:#005EB8;stroke:#005EB8;stroke-miterlimit:10;}
	.st5{display:inline;fill:#FFFFFF;stroke:#FFFFFF;stroke-miterlimit:10;}
</style>
<g id="Layer_1" class="st0">
	<g id="Type_x3D_Linear" class="st1">
		<path id="Vector_23" class="st2" d="M51.9,15.5h-3.5c-1.2-2.5-3.1-4.7-5.5-6.2C40.6,7.8,37.8,7,35,7H22.3c-3.9,0-7.7,1.6-10.4,4.3
			c-2.8,2.8-4.3,6.5-4.3,10.4s1.6,7.7,4.3,10.4c2.8,2.8,6.5,4.3,10.4,4.3H25l6.1,6.1c0.1,0.1,0.3,0.2,0.5,0.3c0.2,0,0.4,0,0.6-0.1
			c0.2-0.1,0.4-0.2,0.5-0.4c0.1-0.2,0.2-0.4,0.2-0.6v-5.3H35c1.7,0,3.5-0.3,5.1-0.9c1.4,0.6,2.9,1,4.4,1v3.7c0,0.2,0.1,0.4,0.2,0.6
			c0.1,0.2,0.3,0.3,0.5,0.4c0.2,0.1,0.4,0.1,0.6,0.1c0.2,0,0.4-0.1,0.5-0.3l4.4-4.4h1.1c2.8,0,5.5-1.1,7.5-3.1c2-2,3.1-4.7,3.1-7.5
			s-1.1-5.5-3.1-7.5C57.4,16.7,54.7,15.5,51.9,15.5L51.9,15.5z M31.8,34.5c-0.3,0-0.5,0.1-0.7,0.3c-0.2,0.2-0.3,0.5-0.3,0.7v3.9
			l-4.6-4.6c-0.2-0.2-0.5-0.3-0.7-0.3h-3.1c-3.4,0-6.6-1.3-9-3.7c-2.4-2.4-3.7-5.6-3.7-9s1.3-6.6,3.7-9c2.4-2.4,5.6-3.7,9-3.7H35
			c1.7,0,3.3,0.3,4.8,1c1.5,0.6,2.9,1.6,4.1,2.7c1.2,1.2,2.1,2.6,2.7,4.1c0.6,1.5,1,3.2,1,4.8s-0.3,3.3-1,4.8
			c-0.6,1.5-1.6,2.9-2.7,4.1c-1.2,1.2-2.6,2.1-4.1,2.7s-3.2,1-4.8,1L31.8,34.5z M51.9,34.5h-1.6c-0.3,0-0.5,0.1-0.7,0.3l-2.9,2.9
			v-2.2c0-0.1,0-0.3-0.1-0.4c-0.1-0.1-0.1-0.2-0.2-0.3c-0.1-0.1-0.2-0.2-0.3-0.2c-0.1-0.1-0.3-0.1-0.4-0.1h-1.1
			c-0.6,0-1.1-0.1-1.7-0.2c2.7-1.7,4.9-4.3,6-7.3c1.2-3,1.3-6.3,0.4-9.4h2.7c2.2,0,4.4,0.9,6,2.5c1.6,1.6,2.5,3.7,2.5,6
			s-0.9,4.4-2.5,6C56.3,33.6,54.1,34.5,51.9,34.5L51.9,34.5z"/>
		<path id="Vector_24" class="st2" d="M28.7,23.9c1.2,0,2.1-0.9,2.1-2.1c0-1.2-0.9-2.1-2.1-2.1c-1.2,0-2.1,0.9-2.1,2.1
			C26.6,23,27.5,23.9,28.7,23.9z"/>
		<path id="Vector_25" class="st2" d="M20.2,23.9c1.2,0,2.1-0.9,2.1-2.1c0-1.2-0.9-2.1-2.1-2.1s-2.1,0.9-2.1,2.1
			C18.1,23,19.1,23.9,20.2,23.9z"/>
		<path id="Vector_26" class="st2" d="M37.1,23.9c1.2,0,2.1-0.9,2.1-2.1c0-1.2-0.9-2.1-2.1-2.1c-1.2,0-2.1,0.9-2.1,2.1
			C35,23,35.9,23.9,37.1,23.9z"/>
	</g>
</g>
<g id="Layer_2" class="st0">
	<g id="Type_x3D_Linear_White" class="st1">
		<path id="Vector_27" class="st3" d="M52,15.5h-3.5c-1.2-2.6-3.1-4.7-5.5-6.2C40.6,7.8,37.8,7,35,7H22.3c-3.9,0-7.7,1.6-10.5,4.3
			C9,14.1,7.5,17.9,7.5,21.8s1.6,7.7,4.3,10.5c2.8,2.8,6.6,4.3,10.5,4.3H25l6.1,6.1c0.1,0.1,0.3,0.2,0.5,0.3c0.2,0,0.4,0,0.6-0.1
			c0.2-0.1,0.4-0.2,0.5-0.4c0.1-0.2,0.2-0.4,0.2-0.6v-5.4H35c1.7,0,3.5-0.3,5.1-0.9c1.4,0.6,2.9,1,4.4,1v3.7c0,0.2,0.1,0.4,0.2,0.6
			c0.1,0.2,0.3,0.3,0.5,0.4c0.2,0.1,0.4,0.1,0.6,0.1c0.2,0,0.4-0.1,0.5-0.3l4.5-4.5H52c2.8,0,5.5-1.1,7.5-3.1c2-2,3.1-4.7,3.1-7.5
			s-1.1-5.5-3.1-7.5C57.5,16.6,54.8,15.5,52,15.5L52,15.5z M31.8,34.5c-0.3,0-0.5,0.1-0.7,0.3c-0.2,0.2-0.3,0.5-0.3,0.7v3.9
			l-4.6-4.6c-0.2-0.2-0.5-0.3-0.7-0.3h-3.1c-3.4,0-6.6-1.3-9-3.7c-2.4-2.4-3.7-5.6-3.7-9s1.3-6.6,3.7-9c2.4-2.4,5.6-3.7,9-3.7H35
			c1.7,0,3.3,0.3,4.9,1c1.5,0.6,2.9,1.6,4.1,2.8c1.2,1.2,2.1,2.6,2.8,4.1c0.6,1.5,1,3.2,1,4.9s-0.3,3.3-1,4.9
			c-0.6,1.5-1.6,2.9-2.8,4.1c-1.2,1.2-2.6,2.1-4.1,2.8c-1.5,0.6-3.2,1-4.9,1L31.8,34.5z M52,34.6h-1.6c-0.3,0-0.5,0.1-0.7,0.3l-3,3
			v-2.2c0-0.1,0-0.3-0.1-0.4c-0.1-0.1-0.1-0.2-0.2-0.3s-0.2-0.2-0.3-0.2c-0.1-0.1-0.3-0.1-0.4-0.1h-1.1c-0.6,0-1.2-0.1-1.7-0.2
			c2.8-1.7,4.9-4.3,6-7.3c1.2-3,1.3-6.4,0.4-9.5H52c2.2,0,4.4,0.9,6,2.5c1.6,1.6,2.5,3.7,2.5,6s-0.9,4.4-2.5,6
			C56.4,33.7,54.2,34.6,52,34.6L52,34.6z"/>
		<path id="Vector_28" class="st3" d="M28.6,23.9c1.2,0,2.1-0.9,2.1-2.1c0-1.2-0.9-2.1-2.1-2.1s-2.1,0.9-2.1,2.1
			C26.5,23,27.5,23.9,28.6,23.9z"/>
		<path id="Vector_29" class="st3" d="M20.2,23.9c1.2,0,2.1-0.9,2.1-2.1c0-1.2-0.9-2.1-2.1-2.1c-1.2,0-2.1,0.9-2.1,2.1
			C18,23,19,23.9,20.2,23.9z"/>
		<path id="Vector_30" class="st3" d="M37.1,23.9c1.2,0,2.1-0.9,2.1-2.1c0-1.2-0.9-2.1-2.1-2.1c-1.2,0-2.1,0.9-2.1,2.1
			C35,23,35.9,23.9,37.1,23.9z"/>
	</g>
</g>
<g id="Layer_7">
	<path class="st2" d="M50.9,9.1h-5.3V5.6c0-0.2-0.1-0.5-0.3-0.6c-0.2-0.2-0.4-0.3-0.6-0.3H19.1c-0.2,0-0.5,0.1-0.6,0.3
		c-0.2,0.2-0.3,0.4-0.3,0.6v33.5c0,0.2,0.1,0.5,0.3,0.6c0.2,0.2,0.4,0.3,0.6,0.3h3.5v4.4c0,0.2,0.1,0.5,0.3,0.6
		c0.2,0.2,0.4,0.3,0.6,0.3h27.3c0.1,0,0.2,0,0.3-0.1c0.1,0,0.2-0.1,0.3-0.2c0.1-0.1,0.1-0.2,0.2-0.3c0-0.1,0.1-0.2,0.1-0.3V10
		c0-0.2-0.1-0.5-0.3-0.6C51.3,9.2,51.1,9.1,50.9,9.1z M20,38.2V6.5h23.8v2.6H23.5c-0.2,0-0.5,0.1-0.6,0.3c-0.2,0.2-0.3,0.4-0.3,0.6
		v28.2H20z M50,43.5H24.4V10.9H50V43.5z"/>
	<path class="st2" d="M43.8,16.2H30.6c-0.2,0-0.5,0.1-0.6,0.3c-0.2,0.2-0.3,0.4-0.3,0.6c0,0.2,0.1,0.5,0.3,0.6
		c0.2,0.2,0.4,0.3,0.6,0.3h13.2c0.2,0,0.5-0.1,0.6-0.3c0.2-0.2,0.3-0.4,0.3-0.6c0-0.2-0.1-0.5-0.3-0.6C44.3,16.3,44,16.2,43.8,16.2z
		"/>
	<path class="st2" d="M43.8,22.4H30.6c-0.2,0-0.5,0.1-0.6,0.3c-0.2,0.2-0.3,0.4-0.3,0.6s0.1,0.5,0.3,0.6c0.2,0.2,0.4,0.3,0.6,0.3
		h13.2c0.2,0,0.5-0.1,0.6-0.3c0.2-0.2,0.3-0.4,0.3-0.6s-0.1-0.5-0.3-0.6C44.3,22.4,44,22.4,43.8,22.4z"/>
	<path class="st2" d="M43.8,37.3h-3.5c-0.2,0-0.5,0.1-0.6,0.3c-0.2,0.2-0.3,0.4-0.3,0.6s0.1,0.5,0.3,0.6c0.2,0.2,0.4,0.3,0.6,0.3
		h3.5c0.2,0,0.5-0.1,0.6-0.3c0.2-0.2,0.3-0.4,0.3-0.6s-0.1-0.5-0.3-0.6C44.3,37.4,44,37.3,43.8,37.3z"/>
	<path class="st2" d="M36.8,28.5h-6.2c-0.2,0-0.5,0.1-0.6,0.3c-0.2,0.2-0.3,0.4-0.3,0.6s0.1,0.5,0.3,0.6c0.2,0.2,0.4,0.3,0.6,0.3
		h6.2c0.1,0,0.2,0,0.3-0.1c0.1,0,0.2-0.1,0.3-0.2c0.1-0.1,0.1-0.2,0.2-0.3c0-0.1,0.1-0.2,0.1-0.3c0-0.1,0-0.2-0.1-0.3
		c0-0.1-0.1-0.2-0.2-0.3c-0.1-0.1-0.2-0.1-0.3-0.2C37,28.5,36.9,28.5,36.8,28.5z"/>
</g>
<g id="Layer_3" class="st0">
	<g class="st1">
		<path class="st2" d="M48.1,15.5c0-0.6,0.5-1.2,1.2-1.2c0.6,0,1.2,0.5,1.2,1.2v6.5c0,4.2-1.7,8-4.5,10.8c-2.5,2.5-5.9,4.1-9.6,4.4
			v10.4h6.4c0.6,0,1.2,0.5,1.2,1.2c0,0.6-0.5,1.2-1.2,1.2h-15c-0.6,0-1.2-0.5-1.2-1.2c0-0.6,0.5-1.2,1.2-1.2h6.4V37.3
			c-3.7-0.3-7.1-1.9-9.6-4.4c-2.8-2.8-4.5-6.6-4.5-10.8v-6.5c0-0.6,0.5-1.2,1.2-1.2c0.6,0,1.2,0.5,1.2,1.2v6.5
			c0,3.5,1.5,6.8,3.8,9.1c2.3,2.3,5.6,3.8,9.1,3.8s6.8-1.5,9.1-3.8c2.3-2.3,3.8-5.6,3.8-9.1L48.1,15.5L48.1,15.5z M35.2,0
			c2.5,0,4.7,1,6.4,2.6s2.6,3.9,2.6,6.4v13.1c0,2.5-1,4.7-2.6,6.4c-1.6,1.6-3.9,2.6-6.4,2.6s-4.7-1-6.4-2.6
			c-1.6-1.6-2.6-3.9-2.6-6.4V9c0-2.5,1-4.7,2.6-6.4C30.5,1,32.8,0,35.2,0z M35.2,2.3c-1.8,0-3.5,0.7-4.7,2c-1.2,1.2-2,2.9-2,4.7
			v13.1c0,1.8,0.8,3.5,2,4.7c1.2,1.2,2.9,2,4.7,2c1.8,0,3.5-0.8,4.7-2c1.2-1.2,2-2.9,2-4.7V9c0-1.8-0.8-3.5-2-4.7
			C38.7,3.1,37.1,2.3,35.2,2.3L35.2,2.3z"/>
	</g>
</g>
<g id="Layer_4" class="st0">
	<g class="st1">
		<g>
			<path class="st3" d="M42.3,27.6L42.3,27.6L42.3,27.6l-1.7-1.7L28.6,13.5l-2.3-2.4v0l-8.5-8.7c-0.5-0.5-1.1-0.8-1.6-0.8
				c-0.2,0-0.5,0.1-0.6,0.2c-0.5,0.5-0.2,1.4,0.5,2.2l10.1,10.4l2.3,2.4L39,27.6l1.7,1.7l2.7,2.8l1.6,1.7l6.1,6.3
				c0.5,0.5,1.1,0.8,1.6,0.8c0.2,0,0.5-0.1,0.6-0.2c0.5-0.5,0.2-1.4-0.5-2.2l-6.1-6.3l-1.6-1.7L42.3,27.6z"/>
			<polygon class="st3" points="40.7,25.9 40.7,25.9 28.6,13.5 28.6,13.5 28.6,13.5 			"/>
			<path class="st3" d="M37.1,28.5c-0.6,0.2-1.2,0.3-1.9,0.3c-1.8,0-3.5-0.7-4.7-2c-1.2-1.2-2-2.9-2-4.7v-2.3l-1.4-1.5l-0.9-0.9v4.8
				c0,2.5,1,4.7,2.6,6.4c1.6,1.6,3.9,2.6,6.4,2.6c1.3,0,2.5-0.3,3.6-0.8L37.6,29L37.1,28.5z"/>
			<path class="st3" d="M41.7,33.2c-1.9,1.1-4.1,1.8-6.5,1.8c-3.5,0-6.8-1.5-9.1-3.8c-2.3-2.3-3.8-5.6-3.8-9.1v-6.5
				c0-0.6-0.5-1.2-1.2-1.2c-0.6,0-1.2,0.5-1.2,1.2v6.5c0,4.2,1.7,8,4.5,10.8c2.5,2.5,5.9,4.1,9.6,4.4v10.4h-6.4
				c-0.6,0-1.2,0.5-1.2,1.2c0,0.6,0.5,1.2,1.2,1.2h15c0.6,0,1.2-0.5,1.2-1.2c0-0.6-0.5-1.2-1.2-1.2h-6.4V37.3c2.5-0.2,4.9-1,7-2.3
				L42,33.4L41.7,33.2z"/>
			<path class="st3" d="M28.6,10.6V9c0-1.8,0.7-3.5,2-4.7c1.2-1.2,2.9-2,4.7-2c1.8,0,3.5,0.7,4.7,2c1.2,1.2,2,2.9,2,4.7v13.1
				c0,0.7-0.1,1.3-0.3,1.9l0.5,0.5l1.3,1.3c0.5-1.2,0.8-2.4,0.8-3.8V9c0-2.5-1-4.7-2.6-6.4C40,1,37.7,0,35.2,0c-2.5,0-4.7,1-6.4,2.6
				c-1.5,1.5-2.4,3.4-2.6,5.6l1.4,1.4L28.6,10.6z"/>
			<path class="st3" d="M47.9,30.5c1.6-2.4,2.6-5.3,2.6-8.4v-6.5c0-0.6-0.5-1.2-1.2-1.2c-0.6,0-1.2,0.5-1.2,1.2l0,0v6.5
				c0,2.4-0.7,4.7-1.9,6.7l0.2,0.2L47.9,30.5z"/>
		</g>
		<path class="st3" d="M16.1,4c-0.8-0.8-1-1.8-0.5-2.2C16,1.4,17,1.6,17.8,2.4l35,36c0.8,0.8,1,1.8,0.5,2.2
			c-0.5,0.5-1.4,0.2-2.2-0.6L16.1,4z"/>
	</g>
</g>
<g id="Layer_5" class="st0">
	<path class="st4" d="M57.6,25.2C57.4,25,57.2,25,57,25s-0.4,0.1-0.6,0.2l-1,1c-0.1-4.5-1.7-8.9-4.7-12.3c-2.9-3.5-6.9-5.8-11.4-6.6
		s-9.1-0.1-13,2.1s-7.1,5.6-8.8,9.8c-1.7,4.2-1.9,8.9-0.6,13.2c1.4,4.4,4.2,8,7.9,10.6c3.7,2.5,8.3,3.6,12.8,3.2
		c4.5-0.5,8.7-2.4,11.9-5.6c0.2-0.2,0.2-0.4,0.2-0.6c0-0.2-0.1-0.4-0.2-0.6c-0.2-0.2-0.4-0.2-0.6-0.2c-0.2,0-0.4,0.1-0.6,0.2
		c-2.9,3-6.8,4.8-10.9,5.2c-4.1,0.4-8.3-0.6-11.8-2.9s-6.1-5.7-7.3-9.7c-1.2-4-1-8.2,0.5-12.1c1.6-3.8,4.4-7.1,8-9.1s7.9-2.7,12-2
		s7.8,2.9,10.5,6.1c2.7,3.2,4.2,7.2,4.3,11.3l-1-1c-0.2-0.2-0.4-0.2-0.6-0.2s-0.4,0.1-0.6,0.2c-0.2,0.2-0.2,0.4-0.2,0.6
		c0,0.2,0.1,0.4,0.2,0.6l2.3,2.3c0.2,0.2,0.4,0.2,0.6,0.2s0.4-0.1,0.6-0.2l2.3-2.3c0.2-0.2,0.3-0.2,0.3-0.4
		C57.9,25.6,57.8,25.3,57.6,25.2z"/>
</g>
<g id="Layer_6" class="st0">
	<path class="st5" d="M57.6,25.2C57.4,25,57.2,25,57,25c-0.2,0-0.4,0.1-0.6,0.2l-1,1c-0.1-4.5-1.7-8.9-4.7-12.3
		c-2.9-3.5-6.9-5.8-11.4-6.6s-9.1-0.1-13,2.1s-7.1,5.6-8.8,9.8c-1.7,4.2-1.9,8.9-0.6,13.2s4.1,8,7.9,10.6c3.7,2.5,8.3,3.6,12.8,3.2
		c4.5-0.5,8.7-2.4,11.9-5.6c0.2-0.2,0.2-0.4,0.2-0.6s-0.1-0.4-0.2-0.6c-0.2-0.2-0.4-0.2-0.6-0.2c-0.2,0-0.4,0.1-0.6,0.2
		c-2.9,3-6.8,4.8-10.9,5.2c-4.1,0.4-8.3-0.6-11.8-2.9c-3.5-2.3-6.1-5.7-7.3-9.7c-1.2-4-1-8.2,0.5-12.1c1.6-3.8,4.4-7.1,8-9.1
		c3.6-2,7.9-2.7,12-2c4.1,0.7,7.9,2.9,10.5,6.1s4.2,7.2,4.3,11.3l-1-1c-0.2-0.2-0.4-0.2-0.6-0.2c-0.2,0-0.4,0.1-0.6,0.2
		c-0.2,0.2-0.2,0.4-0.2,0.6c0,0.2,0.1,0.4,0.2,0.6l2.3,2.3c0.2,0.2,0.4,0.2,0.6,0.2c0.2,0,0.4-0.1,0.6-0.2l2.3-2.3
		c0.2-0.2,0.5-0.4,0.5-0.6C58.1,25.5,57.8,25.3,57.6,25.2z"/>
</g>
</svg>
